<svg width="850" height="51" viewBox="0 0 850 51" fill="none" xmlns="http://www.w3.org/2000/svg">
<path d="M0.865723 49.175L4.16572 48.35V13.15L0.865723 12.325V11.5H15.7157C21.2891 11.5 25.3774 12.3983 27.9807 14.195C30.6207 15.955 31.9407 18.265 31.9407 21.125C31.9407 23.105 31.3724 24.7 30.2357 25.91C29.0991 27.12 27.6507 28.0183 25.8907 28.605C24.0207 29.265 22.0041 29.6133 19.8407 29.65V29.925C22.5174 30.035 24.8457 30.4383 26.8257 31.135C28.8424 31.795 30.5107 32.8217 31.8307 34.215C33.1874 35.6083 33.8657 37.3867 33.8657 39.55C33.8657 42.8133 32.5274 45.38 29.8507 47.25C27.1741 49.0833 22.8291 50 16.8157 50H0.865723V49.175ZM15.7157 29.1C16.9257 29.1 18.0441 28.77 19.0707 28.11C20.1341 27.4133 20.9774 26.46 21.6007 25.25C22.2607 24.0033 22.5907 22.6283 22.5907 21.125C22.5907 19.5117 22.2607 18.0817 21.6007 16.835C20.9774 15.5883 20.1341 14.6167 19.0707 13.92C18.0441 13.2233 16.9257 12.875 15.7157 12.875H13.2407V29.1H15.7157ZM16.8157 48.625C19.0891 48.625 20.9407 47.8183 22.3707 46.205C23.8007 44.5917 24.5157 42.3733 24.5157 39.55C24.5157 36.7267 23.8007 34.5083 22.3707 32.895C20.9407 31.2817 19.0891 30.475 16.8157 30.475H13.2407V48.625H16.8157ZM38.2485 50V49.175L41.5485 48.35V13.15L38.2485 12.325V11.5H53.9235V12.325L50.6235 13.15V48.35L53.9235 49.175V50H38.2485ZM78.3856 50.825C72.959 50.825 68.8523 49.56 66.0656 47.03C63.279 44.4633 61.8856 40.87 61.8856 36.25V13.15L58.5856 12.325V11.5H74.2606V12.325L70.9606 13.15V36.25C70.9606 40.98 71.694 44.3717 73.1606 46.425C74.6273 48.4417 76.7356 49.45 79.4856 49.45C81.1723 49.45 82.7673 48.9183 84.2706 47.855C85.8106 46.755 87.039 45.215 87.9556 43.235C88.909 41.2183 89.3856 38.89 89.3856 36.25V13.975L84.9856 12.325V11.5H95.4356V12.325L91.0356 13.975V36.25C91.0356 39.22 90.4856 41.805 89.3856 44.005C88.2856 46.205 86.7823 47.8917 84.8756 49.065C82.969 50.2383 80.8056 50.825 78.3856 50.825ZM98.4585 49.175L101.758 48.35V13.15L98.4585 12.325V11.5H113.033C119.267 11.5 123.758 12.4533 126.508 14.36C129.258 16.23 130.633 18.8517 130.633 22.225C130.633 24.4983 130.028 26.35 128.818 27.78C127.608 29.1733 126.05 30.2183 124.143 30.915C122.127 31.685 119.982 32.0883 117.708 32.125V32.4C119.065 32.4733 120.257 32.675 121.283 33.005C123.85 33.8117 125.592 35.26 126.508 37.35L131.458 48.35L134.208 49.175V50H126.508C123.502 50 121.302 48.4417 119.908 45.325L114.408 32.95H110.833V48.35L114.683 49.175V50H98.4585V49.175ZM113.033 31.575C115.6 31.575 117.617 30.7683 119.083 29.155C120.55 27.5417 121.283 25.2317 121.283 22.225C121.283 19.2183 120.55 16.9083 119.083 15.295C117.617 13.6817 115.6 12.875 113.033 12.875H110.833V31.575H113.033ZM154.032 50.825C150.439 50.825 147.285 50.055 144.572 48.515C141.895 46.9383 139.824 44.6467 138.357 41.64C136.89 38.6333 136.157 35.0033 136.157 30.75C136.157 26.4967 136.89 22.8667 138.357 19.86C139.824 16.8533 141.895 14.58 144.572 13.04C147.285 11.4633 150.439 10.675 154.032 10.675C157.625 10.675 160.76 11.4633 163.437 13.04C166.15 14.58 168.24 16.8533 169.707 19.86C171.174 22.8667 171.907 26.4967 171.907 30.75C171.907 35.0033 171.174 38.6333 169.707 41.64C168.24 44.6467 166.15 46.9383 163.437 48.515C160.76 50.055 157.625 50.825 154.032 50.825ZM154.032 49.725C155.462 49.725 156.782 49.12 157.992 47.91C159.239 46.7 160.265 44.6833 161.072 41.86C161.879 39.0367 162.282 35.3333 162.282 30.75C162.282 26.1667 161.879 22.4633 161.072 19.64C160.265 16.8167 159.239 14.8 157.992 13.59C156.782 12.38 155.462 11.775 154.032 11.775C152.602 11.775 151.264 12.38 150.017 13.59C148.807 14.8 147.799 16.8167 146.992 19.64C146.185 22.4633 145.782 26.1667 145.782 30.75C145.782 35.3333 146.185 39.0367 146.992 41.86C147.799 44.6833 148.807 46.7 150.017 47.91C151.264 49.12 152.602 49.725 154.032 49.725ZM192.56 49.175L195.86 48.35V13.15L192.56 12.325V11.5H207.96C214.047 11.5 218.41 12.5083 221.05 14.525C223.69 16.505 225.01 19.4383 225.01 23.325C225.01 27.2117 223.69 30.1633 221.05 32.18C218.41 34.16 214.047 35.15 207.96 35.15H204.935V48.35L208.235 49.175V50H192.56V49.175ZM207.96 33.775C210.27 33.775 212.122 32.895 213.515 31.135C214.945 29.375 215.66 26.7717 215.66 23.325C215.66 19.915 214.945 17.33 213.515 15.57C212.122 13.7733 210.27 12.875 207.96 12.875H204.935V33.775H207.96ZM247.274 50.825C243.681 50.825 240.528 50.055 237.814 48.515C235.138 46.9383 233.066 44.6467 231.599 41.64C230.133 38.6333 229.399 35.0033 229.399 30.75C229.399 26.4967 230.133 22.8667 231.599 19.86C233.066 16.8533 235.138 14.58 237.814 13.04C240.528 11.4633 243.681 10.675 247.274 10.675C250.868 10.675 254.003 11.4633 256.679 13.04C259.393 14.58 261.483 16.8533 262.949 19.86C264.416 22.8667 265.149 26.4967 265.149 30.75C265.149 35.0033 264.416 38.6333 262.949 41.64C261.483 44.6467 259.393 46.9383 256.679 48.515C254.003 50.055 250.868 50.825 247.274 50.825ZM247.274 49.725C248.704 49.725 250.024 49.12 251.234 47.91C252.481 46.7 253.508 44.6833 254.314 41.86C255.121 39.0367 255.524 35.3333 255.524 30.75C255.524 26.1667 255.121 22.4633 254.314 19.64C253.508 16.8167 252.481 14.8 251.234 13.59C250.024 12.38 248.704 11.775 247.274 11.775C245.844 11.775 244.506 12.38 243.259 13.59C242.049 14.8 241.041 16.8167 240.234 19.64C239.428 22.4633 239.024 26.1667 239.024 30.75C239.024 35.3333 239.428 39.0367 240.234 41.86C241.041 44.6833 242.049 46.7 243.259 47.91C244.506 49.12 245.844 49.725 247.274 49.725ZM270.387 49.175L273.687 48.35V13.15L270.387 12.325V11.5H284.412C290.976 11.5 295.999 13.1867 299.482 16.56C303.002 19.9333 304.762 24.6633 304.762 30.75C304.762 36.8367 303.002 41.5667 299.482 44.94C295.999 48.3133 290.976 50 284.412 50H270.387V49.175ZM284.412 48.625C287.822 48.625 290.462 47.25 292.332 44.5C294.202 41.7133 295.137 37.13 295.137 30.75C295.137 24.37 294.202 19.805 292.332 17.055C290.462 14.2683 287.822 12.875 284.412 12.875H282.762V48.625H284.412ZM309.704 49.175L313.004 48.35V13.15L309.704 12.325V11.5H324.279C330.512 11.5 335.004 12.4533 337.754 14.36C340.504 16.23 341.879 18.8517 341.879 22.225C341.879 24.4983 341.274 26.35 340.064 27.78C338.854 29.1733 337.295 30.2183 335.389 30.915C333.372 31.685 331.227 32.0883 328.954 32.125V32.4C330.31 32.4733 331.502 32.675 332.529 33.005C335.095 33.8117 336.837 35.26 337.754 37.35L342.704 48.35L345.454 49.175V50H337.754C334.747 50 332.547 48.4417 331.154 45.325L325.654 32.95H322.079V48.35L325.929 49.175V50H309.704V49.175ZM324.279 31.575C326.845 31.575 328.862 30.7683 330.329 29.155C331.795 27.5417 332.529 25.2317 332.529 22.225C332.529 19.2183 331.795 16.9083 330.329 15.295C328.862 13.6817 326.845 12.875 324.279 12.875H322.079V31.575H324.279ZM365.277 50.825C361.684 50.825 358.531 50.055 355.817 48.515C353.141 46.9383 351.069 44.6467 349.602 41.64C348.136 38.6333 347.402 35.0033 347.402 30.75C347.402 26.4967 348.136 22.8667 349.602 19.86C351.069 16.8533 353.141 14.58 355.817 13.04C358.531 11.4633 361.684 10.675 365.277 10.675C368.871 10.675 372.006 11.4633 374.682 13.04C377.396 14.58 379.486 16.8533 380.952 19.86C382.419 22.8667 383.152 26.4967 383.152 30.75C383.152 35.0033 382.419 38.6333 380.952 41.64C379.486 44.6467 377.396 46.9383 374.682 48.515C372.006 50.055 368.871 50.825 365.277 50.825ZM365.277 49.725C366.707 49.725 368.027 49.12 369.237 47.91C370.484 46.7 371.511 44.6833 372.317 41.86C373.124 39.0367 373.527 35.3333 373.527 30.75C373.527 26.1667 373.124 22.4633 372.317 19.64C371.511 16.8167 370.484 14.8 369.237 13.59C368.027 12.38 366.707 11.775 365.277 11.775C363.847 11.775 362.509 12.38 361.262 13.59C360.052 14.8 359.044 16.8167 358.237 19.64C357.431 22.4633 357.027 26.1667 357.027 30.75C357.027 35.3333 357.431 39.0367 358.237 41.86C359.044 44.6833 360.052 46.7 361.262 47.91C362.509 49.12 363.847 49.725 365.277 49.725ZM363.737 8.75L365.937 0.499998H373.087L365.662 8.75H363.737ZM386.766 48.625L407.171 12.875H392.816C392.816 15.1117 392.211 17.2567 391.001 19.31C390.488 20.1533 389.901 20.85 389.241 21.4H387.591V11.5H417.291V12.875L396.941 48.625H411.791C411.791 46.315 412.378 44.17 413.551 42.19C414.064 41.3467 414.669 40.65 415.366 40.1H417.016V50H386.766V48.625ZM402.056 8.2C400.956 8.2 400.039 7.83333 399.306 7.1C398.573 6.36667 398.206 5.45 398.206 4.35C398.206 3.25 398.573 2.33333 399.306 1.6C400.039 0.866664 400.956 0.499998 402.056 0.499998C403.156 0.499998 404.073 0.866664 404.806 1.6C405.539 2.33333 405.906 3.25 405.906 4.35C405.906 5.45 405.539 6.36667 404.806 7.1C404.073 7.83333 403.156 8.2 402.056 8.2ZM430.203 49.175L433.503 48.35V35.7L422.228 13.15L419.478 12.325V11.5H426.353C428.26 11.5 429.781 11.9033 430.918 12.71C432.091 13.5167 433.045 14.6717 433.778 16.175L441.918 32.4L450.278 13.975L446.153 12.325V11.5H456.603V12.325L452.203 13.975L442.578 35.15V48.35L445.878 49.175V50H430.203V49.175ZM491.82 50.825C488.227 50.825 485.074 50.055 482.36 48.515C479.684 46.9383 477.612 44.6467 476.145 41.64C474.679 38.6333 473.945 35.0033 473.945 30.75C473.945 26.4967 474.679 22.8667 476.145 19.86C477.612 16.8533 479.684 14.58 482.36 13.04C485.074 11.4633 488.227 10.675 491.82 10.675C495.414 10.675 498.549 11.4633 501.225 13.04C503.939 14.58 506.029 16.8533 507.495 19.86C508.962 22.8667 509.695 26.4967 509.695 30.75C509.695 35.0033 508.962 38.6333 507.495 41.64C506.029 44.6467 503.939 46.9383 501.225 48.515C498.549 50.055 495.414 50.825 491.82 50.825ZM491.82 49.725C493.25 49.725 494.57 49.12 495.78 47.91C497.027 46.7 498.054 44.6833 498.86 41.86C499.667 39.0367 500.07 35.3333 500.07 30.75C500.07 26.1667 499.667 22.4633 498.86 19.64C498.054 16.8167 497.027 14.8 495.78 13.59C494.57 12.38 493.25 11.775 491.82 11.775C490.39 11.775 489.052 12.38 487.805 13.59C486.595 14.8 485.587 16.8167 484.78 19.64C483.974 22.4633 483.57 26.1667 483.57 30.75C483.57 35.3333 483.974 39.0367 484.78 41.86C485.587 44.6833 486.595 46.7 487.805 47.91C489.052 49.12 490.39 49.725 491.82 49.725ZM514.933 49.175L518.233 48.35V13.15L514.933 12.325V11.5H529.783C535.356 11.5 539.445 12.3983 542.048 14.195C544.688 15.955 546.008 18.265 546.008 21.125C546.008 23.105 545.44 24.7 544.303 25.91C543.166 27.12 541.718 28.0183 539.958 28.605C538.088 29.265 536.071 29.6133 533.908 29.65V29.925C536.585 30.035 538.913 30.4383 540.893 31.135C542.91 31.795 544.578 32.8217 545.898 34.215C547.255 35.6083 547.933 37.3867 547.933 39.55C547.933 42.8133 546.595 45.38 543.918 47.25C541.241 49.0833 536.896 50 530.883 50H514.933V49.175ZM529.783 29.1C530.993 29.1 532.111 28.77 533.138 28.11C534.201 27.4133 535.045 26.46 535.668 25.25C536.328 24.0033 536.658 22.6283 536.658 21.125C536.658 19.5117 536.328 18.0817 535.668 16.835C535.045 15.5883 534.201 14.6167 533.138 13.92C532.111 13.2233 530.993 12.875 529.783 12.875H527.308V29.1H529.783ZM530.883 48.625C533.156 48.625 535.008 47.8183 536.438 46.205C537.868 44.5917 538.583 42.3733 538.583 39.55C538.583 36.7267 537.868 34.5083 536.438 32.895C535.008 31.2817 533.156 30.475 530.883 30.475H527.308V48.625H530.883ZM552.316 50V49.175L555.616 48.35V13.15L552.316 12.325V11.5H567.991V12.325L564.691 13.15V48.35L567.991 49.175V50H552.316ZM572.941 49.175L576.241 48.35V13.15L572.941 12.325V11.5H602.366V21.4H600.716C600.019 20.85 599.414 20.1533 598.901 19.31C597.728 17.33 597.141 15.185 597.141 12.875H585.316V30.2H591.641C591.898 28.8067 592.374 27.505 593.071 26.295C593.364 25.745 593.713 25.2133 594.116 24.7H595.766V37.075H594.116C593.713 36.5617 593.364 36.03 593.071 35.48C592.374 34.27 591.898 32.9683 591.641 31.575H585.316V48.625H598.241C598.241 46.315 598.828 44.17 600.001 42.19C600.514 41.3467 601.119 40.65 601.816 40.1H603.466V50H572.941V49.175ZM607.84 48.625L628.245 12.875H613.89C613.89 15.1117 613.285 17.2567 612.075 19.31C611.562 20.1533 610.975 20.85 610.315 21.4H608.665V11.5H638.365V12.875L618.015 48.625H632.865C632.865 46.315 633.452 44.17 634.625 42.19C635.138 41.3467 635.743 40.65 636.44 40.1H638.09V50H607.84V48.625ZM623.13 8.2C622.03 8.2 621.113 7.83333 620.38 7.1C619.647 6.36667 619.28 5.45 619.28 4.35C619.28 3.25 619.647 2.33333 620.38 1.6C621.113 0.866664 622.03 0.499998 623.13 0.499998C624.23 0.499998 625.147 0.866664 625.88 1.6C626.613 2.33333 626.98 3.25 626.98 4.35C626.98 5.45 626.613 6.36667 625.88 7.1C625.147 7.83333 624.23 8.2 623.13 8.2ZM651.277 49.175L654.577 48.35V35.7L643.302 13.15L640.552 12.325V11.5H647.427C649.334 11.5 650.856 11.9033 651.992 12.71C653.166 13.5167 654.119 14.6717 654.852 16.175L662.992 32.4L671.352 13.975L667.227 12.325V11.5H677.677V12.325L673.277 13.975L663.652 35.15V48.35L666.952 49.175V50H651.277V49.175ZM691.689 50.825C689.086 50.825 686.648 50.2383 684.374 49.065C683.348 48.5517 682.486 47.9467 681.789 47.25C681.276 48.0933 680.634 48.845 679.864 49.505C679.204 49.9817 678.838 50.2383 678.764 50.275H677.389V39.825H679.589C680.139 41.6217 680.909 43.235 681.899 44.665C684.136 47.855 687.033 49.45 690.589 49.45C692.679 49.45 694.348 48.8267 695.594 47.58C696.841 46.3333 697.464 44.665 697.464 42.575C697.464 41.365 697.098 40.2833 696.364 39.33C695.668 38.3767 694.788 37.5333 693.724 36.8C692.661 36.0667 691.176 35.15 689.269 34.05C686.849 32.6933 684.888 31.465 683.384 30.365C681.881 29.265 680.598 27.89 679.534 26.24C678.471 24.5533 677.939 22.5733 677.939 20.3C677.939 18.5033 678.434 16.89 679.424 15.46C680.451 13.9933 681.973 12.8383 683.989 11.995C686.006 11.115 688.481 10.675 691.414 10.675C693.541 10.675 695.668 11.28 697.794 12.49C698.601 12.93 699.408 13.5167 700.214 14.25C700.838 13.2967 701.479 12.545 702.139 11.995C702.799 11.5183 703.166 11.2617 703.239 11.225H704.614V21.675H702.414C701.938 19.915 701.223 18.32 700.269 16.89C699.389 15.4967 698.289 14.3417 696.969 13.425C695.686 12.5083 694.201 12.05 692.514 12.05C691.084 12.05 689.856 12.6183 688.829 13.755C687.803 14.8917 687.289 16.34 687.289 18.1C687.289 19.4567 687.674 20.685 688.444 21.785C689.251 22.8483 690.223 23.7833 691.359 24.59C692.533 25.3967 694.109 26.3683 696.089 27.505C698.399 28.825 700.269 29.9983 701.699 31.025C703.129 32.0517 704.339 33.335 705.329 34.875C706.319 36.3783 706.814 38.12 706.814 40.1C706.814 42.08 706.246 43.895 705.109 45.545C703.973 47.1583 702.268 48.4417 699.994 49.395C697.721 50.3483 694.953 50.825 691.689 50.825ZM690.314 8.75L692.514 0.499998H699.664L692.239 8.75H690.314ZM710.099 12.875L707.074 12.325V11.5H713.674C715.618 11.5 717.213 11.94 718.459 12.82C719.706 13.7 720.586 14.8183 721.099 16.175L729.404 37.35L734.244 23.16L730.174 12.875L727.149 12.325V11.5H733.749C735.693 11.5 737.269 11.94 738.479 12.82C739.689 13.6633 740.588 14.7817 741.174 16.175L749.479 37.35L757.399 13.975L753.274 12.325V11.5H763.449V12.325L759.049 13.975L746.674 50.55H745.024L735.124 25.415L726.599 50.55H724.949L710.099 12.875ZM765.119 50V49.175L768.419 48.35V13.15L765.119 12.325V11.5H780.794V12.325L777.494 13.15V48.35L780.794 49.175V50H765.119ZM780.766 49.175L785.166 47.525L800.291 10.95H801.941L817.616 48.35L820.366 49.175V50H813.766C811.859 50 810.301 49.5783 809.091 48.735C807.881 47.855 806.982 46.7183 806.396 45.325L803.591 38.725H790.446L786.816 47.525L790.941 49.175V50H780.766V49.175ZM790.996 37.35H803.041L796.991 22.885L790.996 37.35ZM825.597 49.175L828.897 48.35V12.875H822.572C822.572 15.1117 821.967 17.2567 820.757 19.31C820.244 20.1533 819.657 20.85 818.997 21.4H817.347V11.5H849.522V21.4H847.872C847.176 20.85 846.571 20.1533 846.057 19.31C844.884 17.33 844.297 15.185 844.297 12.875H837.972V48.35L841.272 49.175V50H825.597V49.175Z" fill="#A7C3D4"/>
</svg>
