<svg width="1105" height="254" viewBox="0 0 1105 254" fill="none" xmlns="http://www.w3.org/2000/svg">
<path d="M9.71971 146.794V151.946L10.6105 159.267L11.4823 165.902C11.4949 165.997 11.5144 166.092 11.5406 166.185L12.4973 169.57M98.4964 248.746L98.1995 239.798V238.443M98.4964 248.746L97.6057 248.565M98.4964 248.746L97.8842 247.933M98.4964 248.746L101.466 249.65M105.622 250.373L106.216 250.463M105.622 250.373L105.029 250.283M105.622 250.373L107.035 244.137M174.209 241.967L175.289 241.425M174.209 241.967L173.764 242.134M174.209 241.967H172.724M187.57 234.918L185.789 235.894M187.57 234.918H187.009M187.57 234.918L187.78 233.562M187.57 234.918L188.029 234.646M239.53 162.521L239.25 165.075C239.239 165.179 239.219 165.283 239.191 165.385L238.045 169.57L235.67 177.163L233.888 182.857L233.058 184.626M230.935 189.093L228.544 193.703L226.169 197.77L222.903 202.922L220.783 205.769M230.935 189.093L231.216 188.551L233.058 184.626M230.935 189.093H213.738M233.058 184.626H228.544M187.186 184.626H191.727M228.544 184.626V172.449C228.544 172.338 228.553 172.227 228.572 172.117L229.026 169.423M228.544 184.626H224.684M233.888 156.013L235.967 154.02M233.888 156.013L233.201 157.098M233.888 156.013L230.966 160.327M233.888 156.013L230.826 159.573C230.691 159.729 230.581 159.906 230.501 160.096L227.059 168.215M246.359 151.946L245.291 150.971C245.211 150.898 245.126 150.831 245.035 150.772L243.508 149.777M246.359 151.946L247.076 153.037C247.191 153.212 247.278 153.405 247.333 153.607L247.475 154.127C247.522 154.299 247.546 154.477 247.546 154.655V155.742V157.64M246.359 151.946L241.585 147.646C241.404 147.483 241.254 147.288 241.143 147.071L239.752 144.354M242.35 149.234L242.202 149.18M242.35 149.234V149.61M242.35 149.234L242.705 149.364M238.045 158.453V158.453C238.236 158.453 238.42 158.382 238.561 158.253L239.53 157.369L240.717 156.284L241.574 155.502C241.792 155.303 241.963 155.058 242.075 154.785L242.128 154.657M242.202 149.18L241.905 149.072M242.202 149.18L242.566 148.692M242.35 139.859L243.62 141.667C243.857 142.004 243.983 142.405 243.983 142.816V142.998M241.905 149.072V149.072C241.72 149.004 241.513 149.035 241.357 149.155L241.151 149.311M241.905 149.072L241.699 148.421M234.482 142.456H236.038C236.188 142.456 236.337 142.472 236.483 142.506L237.08 142.642C237.325 142.698 237.558 142.8 237.765 142.942L238.639 143.54L239.752 144.354M241.608 148.692L240.849 148.519M235.67 148.15H237.154H238.936M235.67 148.15L234.779 148.421M235.67 148.15H240.432M231.216 150.59L232.227 149.667C232.344 149.56 232.474 149.467 232.614 149.39L233.707 148.791C233.828 148.725 233.955 148.672 234.086 148.632L234.779 148.421M241.699 148.421L241.572 148.016M241.699 148.421L241.905 148.485M242.566 148.692L243.012 148.094M242.566 148.692L241.905 148.485M241.151 149.311L240.956 149.46M241.151 149.311L241.751 149.46M242.35 149.61V149.897M242.35 149.61L241.751 149.46M240.849 148.519L240.902 148.989M240.849 148.519L241.507 147.812M240.849 148.519L240.42 148.421M240.956 149.46L240.902 148.989M240.956 149.46L240.666 149.68M240.902 148.989L242.796 149.397M242.796 149.397L242.878 149.427C243.021 149.479 243.157 149.547 243.284 149.63L243.508 149.777M242.796 149.397L242.705 149.364M243.093 148.15L243.39 148.168M247.546 148.421L249.034 148.874C249.229 148.933 249.413 149.022 249.581 149.137L250.515 149.777L251.406 150.59L252 151.132M247.546 148.421L245.078 148.271M247.546 148.421L243.983 148.853M243.39 148.168L242.705 149.364M243.39 148.168L243.725 148.188M241.572 148.016L243.012 148.094M241.572 148.016L241.507 147.812M243.012 148.094L243.234 147.798M241.442 147.607L243.234 147.798M241.442 147.607L241.507 147.812M241.442 147.607L241.377 147.399M243.234 147.798L243.609 147.296M241.311 147.192L241.073 146.438C241.034 146.314 240.983 146.194 240.92 146.08L240.338 145.016C240.197 144.758 240.001 144.535 239.763 144.362L239.752 144.354M241.311 147.192L241.377 147.399M241.311 147.192L240.432 148.15M240.224 148.376L240.42 148.421M240.224 148.376L239.979 148.32M240.224 148.376L240.432 148.15M241.377 147.399L243.609 147.296M243.609 147.296L243.725 147.14M243.725 147.14V148.188M243.725 147.14L243.93 146.866M243.725 148.188L243.93 148.201M243.93 146.866V146.866C243.965 146.819 243.983 146.763 243.983 146.704V142.998M243.93 146.866L244.369 147.798M244.577 148.24L244.369 147.798M244.577 148.24L243.93 148.201M244.577 148.24L245.078 148.271M244.577 148.24L243.983 142.998M241.905 148.485L244.369 147.798M243.093 149.61L243.508 148.91M243.93 148.201L243.689 148.606M243.689 148.606L245.078 148.271M243.689 148.606L243.508 148.91M245.078 148.271L244.369 147.14M242.202 150.048L242.855 149.912M243.508 149.777L243.182 149.844M240.224 149.897H240.956M242.35 149.897H242.202M242.35 149.897V150.319M240.42 148.421L240.569 149.18M240.666 149.68L239.979 150.203M240.666 149.68L240.569 149.18M239.979 150.203L239.827 150.319L238.413 151.675M239.979 150.203L240.199 149.719M239.979 148.32L240.569 149.18M239.979 148.32L239.401 148.188M239.401 148.188V148.188C239.289 148.163 239.175 148.15 239.06 148.15H238.936M239.401 148.188L240.049 148.853C240.273 149.083 240.333 149.427 240.199 149.719V149.719M224.684 184.626V180.416L224.981 176.349L225.693 172.664M224.684 184.626H220.824M230.966 160.623L230.824 160.847C230.691 161.057 230.598 161.29 230.55 161.534L230.357 162.521M230.966 160.623L231.654 159.538M230.966 160.623L230.02 162.038M220.824 184.626H216.074M220.824 184.626V172.824M220.824 80.0911V102.868M216.074 184.626V113.714M216.074 184.626H196.181M216.074 113.714H225.278M216.074 113.714H210.729M220.824 172.824H191.727M220.824 172.824V169.028M191.727 172.824V184.626M191.727 172.824V169.028M191.727 184.626H196.181M205.385 113.714H200.04M205.385 113.714H210.729M205.385 113.714L203.39 117.51M196.181 184.626V158.834L197.071 151.675L198.259 144.896L199.743 138.117L203.009 128.356L206.572 120.492L210.729 113.714M210.729 113.714L213.401 110.189L217.164 105.96C217.229 105.887 217.299 105.819 217.374 105.756L220.824 102.868M203.39 117.51L201.822 120.492L198.556 128.356L197.286 132.152M203.39 117.51H220.824M220.824 117.51V132.152M220.824 117.51V102.868M197.286 132.152H220.824M197.286 132.152L196.016 135.948M220.824 132.152V135.948M220.824 135.948H196.016M220.824 135.948V150.59M196.016 135.948L195.29 138.117L193.805 144.896L192.808 150.59M192.808 150.59L192.618 151.675L192.28 154.386M192.808 150.59H220.824M220.824 150.59V154.386M220.824 154.386H192.28M220.824 154.386V169.028M192.28 154.386L191.727 158.834V169.028M191.727 169.028H220.824M219.067 208.074L219.016 207.26M219.067 208.074L219.672 207.26M219.067 208.074L218.152 209.302M194.696 209.158L195.438 208.48M194.696 209.158L195.087 209.429M194.696 209.158L193.805 209.023M215.133 212.683L211.917 216.208L204.791 222.716L201.228 225.627M215.133 212.683L217.36 210.243M215.133 212.683H214.416M204.494 212.683H203.603H201.526C201.328 212.683 201.132 212.654 200.943 212.597L198.556 211.87L196.599 210.976M204.494 212.683L205.484 211.328M204.494 212.683H205.088M206.276 203.735L202.416 202.476M206.276 203.735L206.721 204.549M206.276 203.735H207.166M211.323 203.735H208.057M211.323 203.735V204.549M211.323 203.735L212.214 204.142M216.074 209.158L215.183 207.531L214.721 206.478C214.634 206.278 214.514 206.093 214.367 205.932L213.352 204.82M216.074 209.158L216.121 209.701M216.074 209.158L216.395 209.429M217.36 210.243L217.855 209.701L218.152 209.302M217.36 210.243L217.039 209.972M216.717 209.701L216.878 209.836M216.717 209.701L216.168 210.243M216.717 209.701L216.556 209.565M213.698 212.683H214.416M213.698 212.683H211.323M213.698 212.683L216.168 210.243M214.416 212.683L217.039 209.972M217.039 209.972L216.878 209.836M218.992 206.879H219.956M218.992 206.879L219.016 207.26M218.992 206.879L218.982 206.718M219.956 206.879L219.672 207.26M219.956 206.879L218.954 206.269M219.956 206.879L220.527 206.112M219.016 207.26H219.672M218.954 206.269L218.982 206.718M218.954 206.269L218.937 205.994M218.982 206.718L219.613 206.471M220.527 206.112L219.613 206.471M220.527 206.112L220.783 205.769M218.937 205.994L219.613 206.471M218.937 205.994L218.881 205.091M216.878 209.836L217.848 209.429M218.152 209.302L217.848 209.429M211.323 212.683V211.87M211.323 212.683H210.432M211.323 211.87L210.432 212.683M211.323 211.87V205.905M210.432 212.683H205.682M205.484 211.328L205.682 211.056L205.807 210.884M205.484 211.328L205.088 212.683M205.088 212.683H205.682M205.807 210.884L206.036 210.571C206.193 210.356 206.403 210.185 206.645 210.074V210.074C207.151 209.843 207.494 209.359 207.545 208.805L207.705 207.054C207.741 206.658 207.658 206.261 207.467 205.912L206.721 204.549M205.807 210.884L205.682 212.683M191.43 208.661V208.661C191.286 208.638 191.231 208.842 191.367 208.895L195.587 210.514L196.599 210.976M191.43 208.661L197.368 210.514M191.43 208.661L193.805 209.023M197.368 210.514L199.097 209.386C199.328 209.236 199.525 209.04 199.676 208.809L200.953 206.865C201.134 206.59 201.244 206.276 201.273 205.949L201.525 203.193M197.368 210.514L196.984 210.745M201.525 203.193L201.606 202.226C201.632 201.926 202.069 201.921 202.101 202.22V202.22C202.112 202.317 202.178 202.399 202.271 202.429L202.416 202.476M201.525 203.193L202.416 202.476M196.599 210.976L196.984 210.745M196.984 210.745L195.087 209.429M195.438 208.48L195.849 208.105C196.067 207.906 196.239 207.661 196.351 207.388L196.921 205.998C197.02 205.757 197.071 205.499 197.071 205.239V203.162C197.071 203.002 197.052 202.844 197.015 202.689L196.571 200.867C196.509 200.613 196.398 200.373 196.243 200.161L194.696 198.041L193.019 196.255C192.95 196.181 192.874 196.112 192.794 196.049L190.836 194.516L189.241 193.545C189.117 193.47 188.986 193.408 188.849 193.361L186.842 192.674C186.734 192.637 186.629 192.591 186.529 192.536L185.789 192.131C185.423 191.93 185.195 191.545 185.195 191.127V191.127C185.195 190.709 185.423 190.324 185.789 190.123L186.679 189.636L187.715 189.068C188.009 188.907 188.34 188.822 188.676 188.822H191.205C191.354 188.822 191.504 188.839 191.65 188.872L192.366 189.036C192.533 189.074 192.694 189.133 192.846 189.213L194.696 190.178L196.67 191.305C196.934 191.455 197.229 191.544 197.532 191.564L201.228 191.805L209.372 192.602C209.485 192.613 209.597 192.633 209.706 192.663L212.046 193.304C212.351 193.388 212.633 193.543 212.866 193.756L215.856 196.487C216 196.619 216.124 196.771 216.225 196.938L217.715 199.434C217.808 199.589 217.879 199.757 217.927 199.931L218.692 202.723C218.728 202.855 218.75 202.991 218.759 203.127L218.881 205.091M195.438 208.48L195.087 209.429M195.438 208.48L193.805 209.023M206.721 204.549L207.018 204.007M207.166 203.735H208.057M207.166 203.735L207.018 204.007M208.057 203.735L207.018 204.007M211.323 204.549L212.214 204.142M211.323 204.549V205.362M212.214 204.142L212.771 204.396C212.991 204.497 213.189 204.641 213.352 204.82V204.82M211.323 205.362L211.38 205.153C211.511 204.675 212.013 204.401 212.486 204.549V204.549M211.323 205.362V205.905M213.352 204.82L212.486 204.549M212.214 204.278L211.917 204.82M211.323 205.905L211.917 204.82M211.917 204.82L212.486 204.549M216.168 210.243L216.121 209.701M216.121 209.701L215.777 210.884L216.395 209.429M216.395 209.429L216.556 209.565M217.848 209.429L216.556 209.565M218.881 205.091L219.556 205.769M220.23 206.447L219.556 205.769M219.556 205.769H220.783M235.373 113.171L236.561 117.781L238.342 123.475L239.233 128.085L239.827 132.152L240.124 136.761M229.138 163.357L229.428 162.923M229.138 163.357H229.666M229.138 163.357L228.687 164.032M230.194 163.357L230.304 162.792M230.194 163.357H229.666M230.194 163.357L230.02 164.246M229.516 162.792H230.304M229.516 162.792L229.428 162.923M229.516 162.792L229.878 162.249M230.304 162.792L230.357 162.521M230.357 162.521L227.973 165.503M227.973 165.503L228.162 164.942C228.218 164.775 228.297 164.615 228.395 164.469L228.544 164.246M227.973 165.503L227.848 165.874M229.428 162.923L229.445 165.399M229.456 167.13L229.445 165.399M229.456 167.13L229.297 167.944M229.456 167.13L230.02 164.246M229.456 167.13L227.516 166.859M229.878 162.249L229.609 164.514M229.878 162.249L230.02 162.038M229.026 169.423L229.138 168.757L229.297 167.944M229.026 169.423L229.536 165.128M227.059 168.215L225.872 171.74L225.693 172.664M227.059 168.215L229.666 163.357M227.059 168.215L227.516 166.859M228.544 164.246L229.445 165.399M228.544 164.246L228.687 164.032M228.544 164.246L233.201 157.098M228.544 164.246L228.301 166.746M227.848 165.874L229.609 164.514M227.848 165.874L227.516 166.859M227.848 165.874L230.966 160.327M229.609 164.514L229.536 165.128M227.653 166.588L229.536 165.128M228.687 164.032L228.992 165.988M229.297 167.944L229.085 166.588M227.516 166.859L228.509 166.273M228.992 165.988L228.509 166.273M228.992 165.988L229.085 166.588M228.509 166.273L229.085 166.588M228.509 166.273L228.301 166.746M230.02 164.246L231.654 159.538M231.654 159.538L233.201 157.098M230.02 162.038L235.967 154.02M235.967 154.02L238.413 151.675M238.413 151.675L239.189 151.132M240.956 149.897L239.189 151.132M240.956 149.897H242.202M239.189 151.132L239.979 150.809M242.202 149.897L240.432 150.623M239.979 150.809L242.35 150.319M239.979 150.809L240.432 150.623M242.35 150.319V151.675M234.779 148.421L238.936 148.15M243.508 148.91L243.983 148.853M242.35 151.675L242.855 149.912M242.35 151.675V153.844M242.855 149.912L243.182 149.844M242.35 153.844V153.844C242.35 154.023 242.315 154.2 242.247 154.366L242.128 154.657M242.35 153.844L242.914 151.132M243.182 149.844L242.97 150.861M242.128 154.657L241.833 150.59M241.751 149.46L241.833 150.59M243.983 148.853L242.97 150.861M242.97 150.861L242.914 151.132M240.199 149.719L241.833 150.59M240.432 150.623L242.914 151.132M229.297 162.792L230.966 160.327M225.693 172.664L228.301 166.746M227.356 141.371V98.3406C227.356 98.1067 227.315 97.8746 227.235 97.6548L226.762 96.3601L225.575 93.6486L224.696 91.7766C224.688 91.7594 224.677 91.744 224.663 91.7312V91.7312C224.565 91.642 224.628 91.4794 224.761 91.4794H227.356M231.513 133.779V98.3406C231.513 98.1067 231.554 97.8746 231.634 97.6548L232.055 96.5022C232.09 96.4076 232.131 96.3157 232.18 96.2274L233.591 93.6486L234.37 91.989C234.437 91.8472 234.403 91.6786 234.288 91.5729V91.5729C234.222 91.5128 234.136 91.4794 234.047 91.4794H231.513M227.356 91.4794V79.2777H226.466H227.653M227.356 91.4794H231.513M232.701 79.2777H231.513M231.513 79.2777V91.4794M231.513 79.2777H231.216M227.653 79.2777V73.8547H229.732M227.653 79.2777H231.216M231.216 79.2777V73.8547H229.732M229.732 73.8547V65.7202V65.449M185.789 235.894L186.448 234.918M185.789 235.894L184.007 236.87M199.743 215.395L193.222 224.885M199.447 227.083L199.15 227.325L198.556 227.744M199.447 227.083L198.556 227.194M199.447 227.083L201.228 225.627M191.025 228.139L196.984 227.827M191.025 228.139L191.291 227.744M191.025 228.139L191.673 228.058M191.025 228.139L190.288 228.287L189.552 228.435M191.025 228.139L186.922 228.646C186.42 228.709 186.129 228.094 186.495 227.744V227.744M191.025 228.139L190.75 228.546M139.47 213.226H140.691C141.058 213.226 141.418 213.327 141.731 213.517L142.693 214.103C142.918 214.24 143.113 214.42 143.268 214.632L143.924 215.53M144.221 217.835V216.441C144.221 216.113 144.117 215.795 143.924 215.53V215.53M144.221 217.835H139.47M144.221 217.835V220.547M144.221 220.547H139.47M144.221 220.547V223.529M144.221 223.529V224.019C144.221 224.216 144.337 224.394 144.518 224.472V224.472M144.221 223.529H143.924M139.47 223.529H143.924M143.924 223.529V225.698M143.924 226.512V225.698M143.924 226.512L144.221 226.828M143.924 226.512V215.53M163.52 237.9L159.66 237.938M163.52 237.9L162.333 237.539M163.52 237.9L165.005 237.879M182.622 237.629L181.335 237.647M182.622 237.629L181.384 238.307M182.622 237.629L184.007 236.87M181.335 237.647L181.384 238.307M181.335 237.647L177.772 240.178M181.335 237.647L180.766 237.655M181.384 238.307L178.96 237.681M181.384 238.307L180.766 238.646M186.448 234.918L186.814 234.375M186.448 234.918H187.009M186.814 234.375L187.009 234.918M186.814 234.375L188.164 232.376M186.814 234.375L188.074 233.887M187.009 234.918L187.78 233.562M135.61 238.171L157.582 237.959M143.033 241.967H168.271M171.24 241.967L173.318 242.3M171.24 241.967H170.201M171.24 241.967H172.724M173.318 242.3L173.764 242.134M173.318 242.3L172.428 242.633M168.865 243.964L167.677 244.408L164.411 245.764L156.988 247.933L149.268 249.831L143.033 250.915L136.204 251.729L130.86 251.886M168.865 243.964L169.162 243.853M168.865 243.964L169.811 243.59M175.289 241.425L170.757 243.216M175.289 241.425L176.584 240.774M169.162 241.967L173.764 242.134M169.162 241.967H170.201M169.162 241.967H168.271M170.201 241.967L170.757 242.134M172.428 242.633L171.24 243.077M172.428 242.633L171.314 242.3M171.24 243.077L169.162 243.853M171.24 243.077L171.277 242.688M171.314 242.3L171.277 242.688M171.314 242.3L170.757 242.134M169.162 243.853L171.277 242.688M171.277 242.688L169.774 242.328M170.757 242.134V243.216M170.757 243.216L169.811 243.59M170.757 243.216L170.266 242.772M168.271 241.967L169.774 242.328M169.774 242.328L170.266 242.772M169.811 243.59L170.266 242.772M172.724 241.967L176.584 240.774M176.584 240.774L177.772 240.178M159.66 237.938L161.145 237.716M159.66 237.938L159.067 237.944M162.333 237.539L161.739 237.358L160.7 236.906M162.333 237.539L161.145 237.716M160.254 236.712L160.7 237.214M160.254 236.712L159.66 236.454M160.254 236.712L160.7 236.906M161.145 237.716L160.7 237.214M159.067 237.944L157.582 237.959M159.067 237.944L159.973 237.539M160.7 237.214L160.254 237.413M159.66 236.454L155.504 234.646L152.238 233.02L149.116 231.205C149.02 231.15 148.929 231.086 148.843 231.015L145.705 228.41L144.221 226.828M159.66 236.454L160.254 237.413M159.66 236.454L166.489 237.858M160.254 237.413L159.973 237.539M157.582 237.959L159.973 237.539M160.7 236.906L165.005 237.879M165.005 237.879L166.489 237.858M166.489 237.858L178.366 237.689M143.924 225.698L144.221 225.085M144.518 224.472L144.221 225.085M144.518 224.472L145.409 224.861M144.518 224.472L144.369 225.65M144.221 226.828L144.369 225.65M144.221 225.085L145.409 224.861M145.409 224.861L145.705 224.991M144.369 225.65L145.705 224.991M145.705 224.991L150.878 227.25C150.992 227.3 151.111 227.339 151.233 227.367L158.012 228.915C158.121 228.94 158.232 228.955 158.343 228.962L162.926 229.223H174.506H182.622H183.71L185.343 229.088L186.16 229.02L186.976 228.952L187.57 228.833M192.618 217.293L187.57 224.885L186.861 226.151C186.741 226.365 186.661 226.599 186.626 226.842L186.495 227.744M198.556 227.744L196.984 227.827M198.556 227.744L197.578 228.435M196.599 229.125L192.618 231.935L191.673 232.493M196.599 229.125L198.556 227.194M196.599 229.125L197.578 228.435M198.556 227.194L197.368 227.343M196.984 227.827L197.578 228.435M197.368 227.343L201.228 225.627M197.368 227.343L193.513 227.827M192.321 227.976L191.291 227.744M192.321 227.976L191.673 228.058M192.321 227.976V227.353M192.321 227.976L193.513 227.827M191.291 227.744L193.222 224.885M191.673 228.058L192.321 226.731M191.673 228.058L190.75 228.546M193.222 224.885L192.321 226.731M192.321 226.731V227.353M192.321 227.353L193.513 227.827M189.552 228.435L190.014 228.693M189.552 228.435L187.57 228.833M190.476 228.952L190.014 228.693M190.476 228.952L190.014 229.636M190.476 228.952L190.75 228.546M188.645 231.664L190.014 229.636M188.645 231.664L188.164 232.376M188.645 231.664L189.552 229.695M190.014 228.693L189.863 229.02M186.495 227.744L189.369 228.833M189.863 229.02L187.57 228.833M189.863 229.02L189.369 228.833M189.863 229.02L189.552 229.695M190.014 229.636L187.78 233.562M191.673 232.493L188.645 234.283M191.673 232.493L188.914 233.562M188.164 232.376L188.093 233.562M188.029 234.646L188.074 233.887M188.029 234.646L188.645 234.283M188.074 233.887L188.645 234.283M188.074 233.887L188.093 233.562M188.074 233.887L188.914 233.562M188.093 233.562H188.645H188.914M189.369 228.833L189.552 229.695M178.96 237.681L179.553 237.673M178.96 237.681L178.366 237.689M178.96 237.681L180.131 238.307M177.772 240.178L179.553 239.283M179.553 237.673V239.283M179.553 237.673L180.766 237.655M179.553 239.283L180.147 238.985L180.766 238.646M180.766 238.646L180.131 238.307M178.366 237.689L180.131 238.307M180.766 237.655L184.007 236.87M130.86 251.886L130.637 251.893M130.86 251.886L130.563 249L130.266 246.113M128.967 238.391L129.407 241.967L130.304 247.384M128.967 238.391L128.454 236.002M128.967 238.391L129.708 242.347M145.112 189.636H145.625C145.874 189.636 146.122 189.682 146.354 189.773L147.798 190.338C147.986 190.412 148.161 190.513 148.318 190.638L152.831 194.245L153.425 194.787M145.112 189.636V185.568M145.112 189.636H143.925C143.727 189.636 143.531 189.665 143.342 189.722L143.06 189.808C142.846 189.873 142.644 189.974 142.463 190.106L141.457 190.842C141.321 190.941 141.198 191.057 141.091 191.187L138.58 194.245L135.135 198.964C135.056 199.071 134.967 199.171 134.868 199.261L131.157 202.651L127.247 205.456C127.083 205.574 126.903 205.666 126.711 205.729L123.943 206.649C123.804 206.695 123.66 206.725 123.515 206.74L121.062 206.989H119.544C119.177 206.989 118.818 207.09 118.504 207.281L118.093 207.531L117.113 208.202C116.975 208.297 116.849 208.409 116.739 208.535L115.717 209.701L114.827 210.785L113.82 211.934C113.7 212.071 113.561 212.192 113.409 212.291L111.686 213.415C111.603 213.469 111.515 213.518 111.424 213.559L109.779 214.31L108.165 214.802C108.053 214.835 107.946 214.879 107.842 214.931L105.325 216.208L102.95 217.293L101.598 218.116C101.316 218.288 101.081 218.526 100.914 218.811L99.5747 221.089M99.5747 221.089L99.3872 223.529M99.5747 221.089L99.2132 223.838M99.3872 223.529L98.8517 224.478M99.3872 223.529L99.5747 226.783M98.1995 238.443L98.7933 236.816L99.5384 235.228C99.6348 235.023 99.6956 234.802 99.718 234.576L99.9621 232.125C99.9747 231.998 99.9752 231.871 99.9637 231.745L99.6841 228.681L99.5903 227.054M98.1995 238.443L98.3163 239.527M97.6057 248.565L93.152 247.662L86.9169 245.764L84.8385 245.064M97.6057 248.565L97.8842 247.933M101.466 239.798L100.212 242.645M101.466 239.798L100.872 240.834M101.466 239.798L101.795 239.256L102.455 238.171M104.435 234.918L104.732 234.425L105.029 233.932M104.435 234.918L102.455 238.171M104.435 234.918L104.414 236.002M107.745 229.088L107.953 229.215M107.745 229.088L106.047 231.732M107.745 229.088L109.527 230.172M108.591 221.902L107.998 226.783L107.953 229.215M107.953 229.215L109.527 230.172M109.527 230.172L109.72 231.727C109.759 232.042 109.722 232.361 109.614 232.659L108.888 234.646L107.998 238.443L107.483 241.967L107.404 242.51M109.527 230.172L111.264 230.579L113.936 230.85H119.874M107.404 242.51L107.281 243.052M107.404 242.51L106.473 248.746M106.216 250.463L106.473 248.746M106.216 250.463L106.81 250.554M105.029 250.283L104.435 250.192M105.029 250.283L106.605 245.221M107.281 243.052L107.035 244.137M107.281 243.052L107.045 243.808L106.81 244.564M104.435 250.192L104.138 250.147M104.435 250.192L104.732 249.489L105.274 248.204M106.81 244.564L105.732 247.119M106.81 244.564L106.605 245.221M104.138 250.147L102.202 249.853C102.107 249.838 102.013 249.817 101.921 249.789L101.466 249.65M104.138 250.147V250.147C104.141 249.97 104.005 249.821 103.828 249.809L103.544 249.79M105.029 233.932L105.151 241.068M105.029 233.932L106.047 231.732M105.274 248.204L105.732 247.119M105.274 248.204L105.218 244.95M105.274 248.204L103.544 249.79M105.151 241.068L105.218 244.95M105.151 241.068L105.274 242.347M105.732 247.119L105.622 245.98M105.218 244.95L105.912 245.086M106.605 245.221L105.912 245.086M105.622 245.98L107.035 244.137M105.622 245.98L105.55 245.221L105.274 242.347M105.912 245.086L105.593 243.716L105.274 242.347M106.473 248.746L106.734 250.147M106.81 250.554L106.734 250.147M106.81 250.554L107.79 250.703M106.734 250.147L107.79 250.703M107.79 250.703L110.967 251.187L115.42 251.729L118.093 251.791M97.8842 247.933L98.9586 245.492M101.466 249.65L103.544 249.79M98.9586 245.492L98.6959 243.052M98.9586 245.492L100.212 242.645M98.1995 245.492L100.27 241.883M98.6959 243.052L98.3163 239.527M98.6959 243.052L99.2379 242.907M100.212 242.645L99.2379 242.907M98.6959 243.594L99.2379 242.907M100.872 240.834L99.2379 242.907M100.872 240.834L100.27 241.883M98.3163 239.527L98.9586 241.883M99.2379 242.907L99.0982 242.395L98.9586 241.883M98.9586 241.883H100.27M102.455 238.171L103.679 236.816M104.414 236.002L104.046 236.409M104.414 236.002L104.4 236.67M103.679 236.816H104.385C104.473 236.816 104.487 236.689 104.4 236.67V236.67M103.679 236.816L104.046 236.409M104.046 236.409L104.4 236.67M103.863 236.612L106.047 231.732M119.874 230.85V238.985M119.874 230.85L120.171 230.308M119.874 251.833L119.429 251.823M119.874 251.833V251.374M119.874 251.833L120.425 251.846M119.874 249.288V250.915M119.874 249.288L120.001 245.919M119.874 249.288L121.062 244.95M121.656 242.781L118.983 251.812M121.656 242.781L121.359 243.866M121.656 242.781L121.455 243.502M121.656 242.781L121.533 243.052M127.127 228.41L126.88 229.199C126.765 229.569 126.759 229.964 126.864 230.337L128.454 236.002M127.127 228.41L128.393 224.363C128.454 224.17 128.485 223.969 128.485 223.766V221.264C128.485 220.97 128.42 220.68 128.295 220.414L127.594 218.92L127.293 218.37C126.931 217.709 126.971 216.901 127.396 216.28L128.082 215.277C128.152 215.175 128.232 215.08 128.319 214.992L137.554 205.768C137.644 205.679 137.725 205.581 137.796 205.475L141.549 199.939L143.099 196.872C143.251 196.572 143.476 196.315 143.754 196.124L144.05 195.921C144.355 195.713 144.715 195.601 145.085 195.601V195.601C145.299 195.601 145.512 195.638 145.713 195.712L146.733 196.085C146.84 196.124 146.949 196.153 147.06 196.174L148.199 196.382C148.318 196.403 148.438 196.414 148.559 196.414H153.722M127.127 228.41L125.069 232.748M124.555 233.833L124.169 234.646M124.555 233.833L124.667 234.074C124.818 234.4 124.513 234.751 124.169 234.646V234.646M124.555 233.833L125.069 232.748M130.266 246.113L129.041 241.967M130.266 246.113L129.708 242.347M129.969 251.913L127 252L121.062 251.861M129.969 251.913L130.637 251.893M129.969 251.913V251.913C129.974 251.813 129.894 251.73 129.795 251.732L121.062 251.861M130.637 251.893L130.304 247.384M129.041 241.967L128.716 238.391L128.585 237.197L128.454 236.002M129.041 241.967L129.708 242.347M128.454 236.002L128.611 240.069M129.586 243.052L126.632 237.087L128.967 241.154M129.586 243.052L128.611 240.069M129.586 243.052L129.708 242.347M128.611 240.069L128.002 239.256L125.521 235.326C125.351 235.058 125.248 234.753 125.22 234.436L125.069 232.748M124.169 234.646L123.226 236.635C123.169 236.755 123.124 236.881 123.092 237.009L122.195 240.612L121.455 243.502M129.708 242.347L130.304 247.384M118.983 251.812L119.874 250.915M118.983 251.812L119.429 251.823M118.983 251.812L118.538 251.802M119.874 250.915V251.374M119.429 251.823L119.874 249.619M120.001 245.919L120.145 246.094M120.001 245.919V242.394M120.001 245.919L120.468 245.492M118.093 251.791L119.874 249.619M118.093 251.791L118.538 251.802M119.874 249.619L120.145 246.094M119.874 249.619V251.374M119.874 249.619L120.001 250.733M118.538 251.802L121.062 244.95M121.062 244.95L120.468 245.492M121.062 244.95L121.359 243.866M120.145 246.094L121.533 243.052M120.001 242.394L120.171 244.001M120.001 242.394L119.874 238.985M120.468 245.492L120.252 244.408M120.171 244.001L120.252 244.408M120.171 244.001L120.145 245.492M121.359 243.866L120.145 245.492M120.252 244.408L120.145 245.492M121.455 243.502L120.145 245.492M119.874 238.985L120.425 243.052M120.145 245.492L120.425 243.052M120.425 243.052H121.533M120.425 251.846L120.001 250.733M120.425 251.846L121.062 251.861M120.001 250.733L121.062 251.861M91.6675 234.918L95.6877 230.197C95.7785 230.091 95.8578 229.975 95.9244 229.852L98.0231 225.97M99.2132 223.838L98.0231 225.97M99.2132 223.838L98.584 224.953M99.2132 223.838L99.5903 227.054M98.8517 224.478L99.2132 225.631M98.8517 224.478L98.584 224.953M99.5747 226.783L99.2132 225.631M99.5747 226.783L99.5903 227.054M98.0231 225.97L99.2132 225.631M99.2132 225.631L98.584 224.953M153.425 194.787L153.985 195.299C154.008 195.319 154.029 195.342 154.048 195.365L154.156 195.497C154.457 195.863 154.196 196.414 153.722 196.414V196.414M153.425 194.787L153.722 196.414M153.128 214.852H187.57M185.789 210.243H182.819M145.705 210.243H158.176M158.176 210.243L156.518 208.729C156.436 208.654 156.36 208.572 156.291 208.484L155.243 207.144C155.025 206.865 154.884 206.533 154.836 206.183L154.613 204.549V204.549C154.613 204.406 154.74 204.297 154.881 204.318L158.176 204.82L162.333 205.091L171.24 205.33M158.176 210.243H181.632M181.632 210.243L182.216 209.023M181.632 210.243H182.819M84.8385 245.064L81.2755 243.866L74.7435 241.154L69.1021 238.443L62.5701 234.918L61.7123 234.375M84.8385 245.064V234.491C84.8385 233.652 85.4674 232.948 86.3001 232.853V232.853M83.6508 220.275L84.191 223.236C84.2267 223.431 84.2817 223.622 84.3551 223.807L85.4323 226.512L87.2138 230.85L87.4329 231.651C87.4835 231.836 87.4754 232.032 87.4097 232.212V232.212C87.2896 232.541 86.994 232.773 86.6462 232.813L86.3001 232.853M83.6508 220.275L88.9952 214.039L89.2922 213.768M83.6508 220.275L81.2755 221.36L79.4986 222.287C79.2983 222.392 79.0868 222.473 78.8681 222.531L77.1188 222.987L73.5649 223.736C73.3614 223.779 73.1541 223.8 72.9462 223.8H72.0713M72.0713 223.8V224.869C72.0713 225.232 71.9559 225.585 71.7418 225.879V225.879C71.5685 226.116 71.337 226.305 71.0696 226.427L70.7398 226.578C70.4498 226.71 70.1215 226.732 69.8165 226.639V226.639C69.5456 226.557 69.3087 226.388 69.1417 226.159L69.0986 226.1C68.908 225.839 68.8052 225.524 68.8052 225.201V225.156V212.357C68.8052 212.215 68.8409 212.076 68.909 211.952V211.952C69.0312 211.728 69.2475 211.572 69.4978 211.526L70.3495 211.371C70.5073 211.342 70.6674 211.328 70.8278 211.328H71.1805M72.0713 223.8V212.141M72.0713 208.345L69.9279 206.632C69.7778 206.512 69.5913 206.447 69.399 206.447V206.447M72.0713 208.345L72.6234 208.093C73.036 207.904 73.3766 207.588 73.5944 207.19V207.19C73.7639 206.88 73.8527 206.529 73.8527 206.176V206.176M72.0713 208.345V208.616M64.6485 203.735L65.2785 203.927C65.4501 203.979 65.6079 204.069 65.7404 204.19V204.19C65.9905 204.419 66.133 204.742 66.133 205.08V205.091V205.362M64.6485 203.735H62.5701M64.6485 203.735V201.295M66.133 205.769V206.447M66.133 205.769H68.7054C69.3374 205.769 69.9413 205.508 70.3738 205.047V205.047C70.5151 204.896 70.6761 204.766 70.8524 204.658L71.2238 204.432C71.3897 204.331 71.5801 204.278 71.7743 204.278V204.278M66.133 205.769V205.362M66.133 206.447H69.399M66.133 206.447H65.2423M71.7743 204.278V204.278C71.97 204.278 72.1634 204.32 72.3413 204.401L72.416 204.435C72.581 204.51 72.7333 204.611 72.8673 204.733L72.962 204.82L73.0128 204.866C73.3695 205.192 73.6423 205.599 73.8079 206.053L73.8527 206.176M71.7743 204.278V201.024M73.8527 206.176H77.4157H77.7126M69.399 206.447L72.0713 208.616M72.0713 208.616V210.514M71.329 211.328H72.0713M71.329 211.328L72.0713 212.141M71.329 211.328H71.1805M72.0713 211.328V212.141M72.0713 211.328V210.514M71.1805 211.328L72.0713 210.514M65.2423 206.447L66.133 205.362M65.2423 206.447H62.867M52.772 206.447H51.2045C51.0626 206.447 50.9215 206.426 50.7858 206.385L50.7114 206.362C50.3263 206.245 50.0186 205.953 49.8806 205.575V205.575C49.8291 205.434 49.8028 205.286 49.8028 205.136V204.449C49.8028 204.345 49.8638 204.25 49.9588 204.206V204.206L50.3967 204.007L50.8603 203.865C51.1435 203.779 51.4379 203.735 51.7339 203.735H62.5701M52.772 206.447V208.213C52.772 208.48 52.8078 208.747 52.8784 209.005L53.0689 209.701L53.8735 212.15C53.9308 212.324 54.004 212.493 54.0922 212.654L54.8504 214.039L56.9287 217.293M52.772 206.447H62.867M62.867 206.447V210.823C62.867 210.978 62.8549 211.133 62.8309 211.287L62.5701 212.954L61.9762 216.751L59.6009 225.698L57.9814 229.766M57.2257 231.664L57.9814 229.766M59.304 232.853L58.7102 232.477L55.939 230.579M59.304 232.853L61.7123 234.375M59.304 232.853H62.5701M86.3001 232.853H62.5701M61.7123 234.375L62.5701 232.853M55.939 230.579L55.1473 230.037L50.0998 226.241L45.3492 222.445L45.0523 222.174M55.939 230.579L57.9814 229.766M45.0523 222.174L40.3017 217.835L37.3325 214.581L34.9572 211.87L31.6912 208.074L29.3159 205.091L27.2375 202.139M45.0523 222.174V216.751L44.7553 212.412L43.8646 203.193L42.6999 188.568C42.6848 188.378 42.7107 188.187 42.7759 188.009V188.009M44.1615 185.026L43.8646 185.568M42.7759 188.009L43.2189 186.795C43.2534 186.7 43.2951 186.609 43.3434 186.52L43.8646 185.568M42.7759 188.009H27.2375M27.2375 188.009V198.312M27.2375 188.009L26.0499 185.406M27.2375 202.139L26.6437 201.295L25.0404 198.855M27.2375 202.139V198.312M25.0404 198.855L23.9715 197.228L21.5962 192.889L18.924 187.738L16.5487 182.315L13.8765 174.451L12.4973 169.57M25.0404 198.855L27.2375 198.312M25.4561 184.213V181.874C25.4561 180.77 26.3515 179.874 27.4561 179.874H28.5736M25.4561 184.213L26.0499 185.406M25.4561 184.213H27.2375M44.7553 184.213H44.4584H42.7759M44.7553 184.213V181.874C44.7553 180.77 43.8599 179.874 42.7553 179.874H41.4893M44.7553 184.213L43.8646 185.568M25.1591 184.755V184.755C25.5209 184.755 25.8493 184.966 25.9995 185.295L26.0499 185.406M26.0499 185.406L27.2375 184.213M27.2375 184.213H31.6912M31.6912 179.874V184.213M31.6912 179.874H38.5202M31.6912 179.874H28.5736M31.6912 184.213H38.5202M38.5202 179.874V184.213M38.5202 179.874H41.4893M38.5202 184.213H42.7759M43.8646 185.568L42.7759 184.213M77.7126 206.176V207.803V207.803C77.7126 207.979 77.757 208.155 77.8418 208.31V208.31C77.9507 208.509 78.121 208.667 78.3272 208.761L78.3684 208.78C78.5232 208.851 78.6914 208.887 78.8616 208.887H79.0373H81.8694M77.7126 206.176H82.4632M81.8694 208.887H92.773C93.0228 208.887 93.2696 208.834 93.4968 208.73L93.5537 208.704C93.681 208.646 93.7985 208.568 93.9018 208.474L94.0538 208.335C94.2359 208.168 94.3397 207.933 94.3397 207.687V207.687C94.3397 207.584 94.3217 207.482 94.2865 207.386L94.1495 207.011C94.0794 206.818 93.9639 206.646 93.8128 206.508V206.508C93.5787 206.294 93.2732 206.176 92.9561 206.176H90.7767M81.8694 208.887L82.7601 217.022M62.5701 203.735L64.6485 201.295M64.6485 201.295L65.5392 200.482L67.0238 199.126L69.0621 197.73C69.2857 197.577 69.529 197.454 69.7854 197.367L71.7743 196.685M71.7743 196.685V201.024M71.7743 196.685V188.822M71.7743 201.024H74.0702C74.3123 201.024 74.5457 200.933 74.7244 200.77V200.77C74.9257 200.586 75.0404 200.326 75.0404 200.054V199.668V197.77M72.0713 186.517L72.1109 186.463C72.2779 186.234 72.5147 186.066 72.7857 185.984V185.984C73.0906 185.891 73.4189 185.913 73.7089 186.045L73.8527 186.111M72.0713 186.517V186.517C71.8783 186.782 71.7743 187.1 71.7743 187.428V188.822M72.0713 186.517L73.8527 186.111M73.8527 186.111L74.3061 186.318C74.3992 186.36 74.485 186.417 74.5605 186.486V186.486C74.8662 186.765 75.0404 187.16 75.0404 187.574V197.77M71.7743 188.822H68.6579C68.3619 188.822 68.0675 188.866 67.7843 188.952L64.8988 189.831C64.7322 189.881 64.5704 189.946 64.4151 190.025L62.251 191.123C62.0683 191.216 61.8956 191.327 61.7356 191.455L59.6009 193.161L56.6318 195.872M75.0404 197.77L77.1836 198.993C77.338 199.081 77.4843 199.183 77.6207 199.297L79.0373 200.482L80.7467 202.153C80.9009 202.304 81.0383 202.47 81.1567 202.651L81.5844 203.302C81.773 203.589 81.9109 203.906 81.9921 204.24L82.4632 206.176M82.4632 206.176H90.7767M80.6817 190.72L85.5741 193.947C85.873 194.144 86.1343 194.393 86.3454 194.682L87.8076 196.685L89.2922 199.126L90.3607 201.565C90.4399 201.746 90.5011 201.934 90.5433 202.127L90.7073 202.876C90.7534 203.087 90.7767 203.302 90.7767 203.518V206.176M34.1223 202.139V202.139C34.2763 201.95 34.5059 201.837 34.7493 201.837H34.9572H35.1043C35.3917 201.837 35.6687 201.945 35.881 202.139V202.139M34.1223 202.139C33.8798 202.436 33.4968 202.888 33.1758 203.193V203.193C32.9866 203.366 32.8789 203.61 32.8789 203.866V204.045C32.8789 204.773 33.4686 205.362 34.196 205.362H35.5303C36.3617 205.362 37.0356 204.688 37.0356 203.857V203.857C37.0356 203.434 36.8577 203.031 36.5454 202.745L35.881 202.139M34.1223 202.139H35.881M28.5736 179.874V169.57M28.5736 169.57L26.6437 165.774M28.5736 169.57H41.4893M26.6437 165.774H43.2708H43.5677M26.6437 165.774L34.9572 159.809M43.5677 165.774L41.4893 169.57M43.5677 165.774L34.9572 159.809M41.4893 169.57V179.874M34.9572 159.809V157.098M34.9572 157.098V154.705C34.9572 153.63 34.086 152.759 33.0114 152.759H30.8211C30.0891 152.759 29.6783 153.602 30.1292 154.179V154.179C30.3545 154.467 30.3778 154.864 30.1878 155.176L30.0879 155.341C29.6192 156.111 30.1738 157.098 31.0757 157.098H34.9572ZM171.24 205.33L172.428 205.362L178.663 205.633L180.72 205.744C182.144 205.82 183.032 207.319 182.416 208.605L182.216 209.023M171.24 205.33V201.837M171.24 179.332H169.755M171.24 179.332V177.773M171.24 179.332V181.772M171.24 176.214V174.607C171.24 173.827 170.523 173.244 169.76 173.403V173.403C168.491 173.666 168.439 175.458 169.689 175.795L171.24 176.214ZM171.24 176.214V177.773M169.755 179.332L171.24 177.773M169.755 179.332L168.271 180.145M169.755 179.332L169.477 180.688M171.24 201.837V196.957M171.24 201.837L170.89 201.024M169.14 196.957L168.137 194.624C168.029 194.374 167.974 194.105 167.974 193.833V191.805L168.271 188.28L168.865 183.67L169.171 182.179M169.14 196.957H171.24M169.14 196.957L170.015 198.99M171.24 196.957V182.586M170.89 201.024H178.547C179.996 201.024 180.964 199.531 180.373 198.208L173.027 181.772M170.89 201.024H168.865M170.89 201.024L170.015 198.99M171.24 177.773L173.027 181.772M168.271 180.145L165.701 181.553C165.438 181.697 165.211 181.899 165.036 182.143L160.531 188.436C160.349 188.69 160.229 188.983 160.181 189.291L159.684 192.465C159.668 192.567 159.66 192.67 159.66 192.774V198.586C159.66 198.764 159.684 198.942 159.731 199.114L159.845 199.528C159.919 199.799 160.05 200.052 160.228 200.269L160.248 200.293C160.628 200.756 161.195 201.024 161.793 201.024H168.865M168.271 180.145L169.477 180.688M169.477 180.688L169.171 182.179M169.477 180.688L171.24 181.772M169.171 182.179L171.24 181.772M171.24 181.772V182.586M168.865 201.024L170.015 198.99M171.24 182.586L173.027 181.772M182.216 209.023L182.819 210.243M150.159 180.145L152.023 179.416C152.165 179.36 152.316 179.332 152.468 179.332V179.332C152.705 179.332 152.937 179.401 153.136 179.53L153.871 180.01M159.66 180.145L157.538 179.419C157.371 179.361 157.195 179.332 157.018 179.332V179.332C156.617 179.332 156.23 179.482 155.934 179.752L155.652 180.01M137.392 174.451L139.638 173.312C139.918 173.17 140.228 173.095 140.542 173.095H141.252V173.095C141.445 173.095 141.634 173.154 141.794 173.263L142.736 173.909M150.456 174.722L150.279 174.561C150.199 174.488 150.114 174.422 150.023 174.362L148.578 173.42C148.254 173.208 147.874 173.095 147.487 173.095V173.095H146.893H146.692C146.245 173.095 145.811 173.245 145.459 173.521L144.963 173.909M142.736 173.909L142.835 173.977C143.483 174.421 144.345 174.393 144.963 173.909V173.909M142.736 173.909H144.963M153.871 180.01L154.068 180.138C154.563 180.462 155.215 180.409 155.652 180.01V180.01M153.871 180.01H155.652M12.4973 169.57H16.2518M23.8177 169.57H20.7055M16.2518 169.57V153.03M16.2518 169.57H20.7055M16.2518 153.03H14.4703M16.2518 153.03H20.7055M16.2518 153.03V143.54M20.7055 153.03H22.19M20.7055 153.03V169.57M20.7055 153.03V143.54M16.2518 143.54H20.7055M16.2518 143.54H14.3919C13.2874 143.54 12.3919 142.645 12.3919 141.54V138.659M20.7055 143.54H31.3943M12.3919 138.659H16.2518M12.3919 138.659H8.23515H7.93824M30.8005 138.659L31.3943 143.54M30.8005 138.659L30.5036 133.508M30.8005 138.659H20.7055M31.3943 143.54L31.7122 143.83C32.0807 144.167 32.5618 144.354 33.0609 144.354H38.2233M38.2233 144.354L39.114 143.811M38.2233 144.354L39.114 141.642M39.114 143.811V143.811C39.305 143.637 39.5543 143.54 39.813 143.54H49.8028M39.114 143.811V141.642M58.1164 138.659V141.54C58.1164 142.645 57.221 143.54 56.1164 143.54H53.6627M58.1164 138.659H61.3824M58.1164 138.659H53.3658M39.114 138.659V141.642M39.114 138.659H49.8028M39.114 138.659L39.7078 133.508M49.8028 143.54V169.614M49.8028 143.54H53.6627M49.8028 169.614L46.2399 169.57H45.943M49.8028 169.614L54.2565 169.57M60.4917 169.614L54.2565 169.57M60.4917 169.614L59.8979 175.265M60.4917 169.614L62.4491 163.7C62.529 163.458 62.6543 163.234 62.8181 163.04L64.6686 160.843C65.1946 160.218 66.0473 159.976 66.8229 160.231L69.2506 161.029M54.2565 169.57L53.6627 143.54M48.0214 153.03H55.4442M53.3658 138.659V132.423M53.3658 138.659H49.8028M53.3658 132.423L49.8028 132.965M53.3658 132.423L63.4452 129.516C64.1812 129.304 64.7313 128.69 64.8618 127.935L65.5392 124.017M49.8028 138.659V132.965M49.8028 132.965L39.7078 133.508M39.7078 133.508H30.5036M30.5036 133.508L20.7055 132.965M65.5392 124.017L58.4133 125.373L51.5843 127L42.9739 128.085H30.2066L24.8622 127.813L18.3302 127L11.2043 125.644L4.3753 123.746M65.5392 124.017L68.2114 121.306M16.2518 138.659V132.423M16.2518 138.659H20.7055M16.2518 132.423L20.7055 132.965M16.2518 132.423L6.41598 129.51C5.70811 129.3 5.17331 128.718 5.02483 127.994L4.41616 125.03C4.38899 124.897 4.3753 124.763 4.3753 124.628V123.746M20.7055 138.659V132.965M4.3753 123.746L2 121.577M61.3824 159.267V145.709M129.375 198.312H123.14M123.14 198.312H95.5191C94.3845 198.312 93.608 197.167 94.0277 196.113V196.113C94.223 195.623 94.6471 195.26 95.1618 195.142L96.4434 194.849C96.6236 194.808 96.7972 194.742 96.9593 194.654L99.2199 193.415C99.5241 193.248 99.7798 193.005 99.9617 192.71L102.356 188.822L103.841 186.924M123.14 198.312L121.294 196.626C121.14 196.486 120.965 196.37 120.776 196.284L117.785 194.918C117.595 194.831 117.421 194.716 117.267 194.575L115.912 193.338C115.783 193.22 115.67 193.086 115.575 192.938L114.678 191.534M111.561 183.128V185.114C111.561 185.413 111.628 185.708 111.757 185.978L112.6 187.738M111.561 183.128L109.779 181.23L109.03 180.431C108.503 179.871 107.592 179.95 107.17 180.592V180.592C107.128 180.656 107.092 180.723 107.063 180.793L106.105 183.128M111.561 183.128H123.734M103.841 186.924L105.155 185.243C105.268 185.099 105.361 184.94 105.43 184.771L106.105 183.128M103.841 186.924L104.756 188.596C105.107 189.237 105.78 189.636 106.511 189.636H107.091C107.667 189.636 108.215 189.387 108.595 188.953L109.185 188.28L109.206 188.261C109.575 187.924 110.056 187.738 110.555 187.738H112.6M112.6 187.738L113.639 189.907L114.678 191.534M114.678 191.534H135.017M78.6033 183.128H106.105M131.751 183.128H123.734M48.9121 183.128H58.5618M68.2114 183.128H58.5618M58.5618 183.128V182.441C58.5618 182.007 58.4206 181.585 58.1596 181.238L56.0739 178.468C55.0817 177.15 56.022 175.265 57.6717 175.265H59.8979M123.734 183.128L127.398 178.507C128.437 177.196 127.504 175.265 125.831 175.265H123.734M59.8979 175.265H67.0238M89.886 175.265L87.9739 173.367M89.886 175.265H88.6983M89.886 175.265H100.872M67.0238 164.419V175.265M67.0238 175.265H71.4774M71.4774 165.774V175.265M71.4774 175.265H75.0404M75.0404 167.13V175.265M75.0404 175.265H88.6983M69.2506 161.029L72.8013 162.197C72.9082 162.232 73.012 162.276 73.1115 162.329L78.4753 165.164C78.5605 165.209 78.6424 165.261 78.7203 165.318L82.9351 168.397C83.0162 168.456 83.0928 168.521 83.1642 168.592L87.9739 173.367M69.2506 161.029L72.6867 154.869C73.04 154.236 73.7083 153.844 74.4334 153.844H75.6334C76.0214 153.844 76.4011 153.957 76.7261 154.169L78.6033 155.393M91.9644 166.588L88.6983 163.334L82.4632 157.911L78.6033 155.393M91.9644 166.588L89.2922 171.127M91.9644 166.588V163.819C91.9644 163.5 92.0405 163.186 92.1865 162.903L93.152 161.029L95.5273 156.826M91.9644 166.588L95.5273 164.419L99.6841 162.249L103.841 160.351L105.984 159.699C106.33 159.594 106.699 159.584 107.05 159.672L109.572 160.3C109.71 160.334 109.843 160.383 109.971 160.446L113.639 162.249L117.499 164.419L120.696 166.365C120.937 166.512 121.144 166.708 121.304 166.941L121.434 167.13M87.9739 173.367L89.2922 171.127M89.2922 171.127L88.6983 175.265M78.6033 155.393L79.6986 152.214C79.7599 152.036 79.8459 151.868 79.9541 151.714L81.483 149.542C82.0479 148.74 83.1118 148.466 83.9941 148.895L86.7389 150.232C86.8573 150.29 86.9696 150.359 87.0744 150.439L90.4798 153.03L95.5273 156.826M95.5273 156.826L96.2696 156.284M123.734 175.265V172.255C123.734 172.093 123.714 171.931 123.675 171.774L123.227 169.966C123.17 169.733 123.071 169.513 122.935 169.315L121.434 167.13M123.734 175.265H111.561M121.434 167.13L121.099 162.741C121.075 162.418 120.972 162.106 120.8 161.832L119.97 160.505C119.906 160.403 119.833 160.307 119.752 160.218L118.093 158.399M95.5273 156.284L95.3789 154.928M118.093 155.742L117.562 152.35C117.52 152.083 117.425 151.828 117.282 151.599L115.247 148.347C115.165 148.216 115.068 148.095 114.958 147.986L111.709 144.771C111.61 144.674 111.502 144.587 111.386 144.512L107.678 142.122C106.977 141.67 106.07 141.701 105.401 142.199L98.8156 147.099C98.6049 147.256 98.4271 147.452 98.2925 147.678L96.715 150.319L95.4589 153.072C95.3093 153.4 95.2511 153.762 95.2903 154.12L95.3789 154.928M118.093 155.742V158.399M118.093 155.742L116.385 156.528M118.093 158.399L116.385 156.528M95.3789 154.928L96.2696 156.284M96.2696 156.284L98.4964 154.657L101.283 152.621C101.404 152.533 101.535 152.458 101.673 152.399L105.632 150.698C106.189 150.458 106.825 150.484 107.36 150.769L114.373 154.495C114.575 154.602 114.757 154.744 114.911 154.913L116.385 156.528M100.872 175.265L97.3088 167.672M100.872 175.265H103.841M103.841 175.265L101.466 165.774M103.841 175.265H106.513M106.513 175.265V164.419M106.513 175.265H108.591M108.591 175.265L111.561 165.774M108.591 175.265H111.561M111.561 175.265L115.124 167.672M178.366 165.232H167.974M167.974 165.232H137.986M167.974 165.232L164.449 160.894M147.487 140.015L129.649 161.971C128.588 163.278 129.518 165.232 131.202 165.232H137.986M147.487 140.015L137.986 165.232M147.487 140.015L149.47 142.456M164.449 160.894H183.024C184.701 160.894 185.633 158.953 184.585 157.644L161.145 128.356M164.449 160.894L153.655 147.607M161.145 128.356L149.47 142.456M161.145 128.356L153.655 147.607M149.47 142.456L153.655 147.607M68.8052 127V151.946M75.6342 147.336V108.291M79.1971 108.291H77.7126M36.4418 108.291H38.0748M39.7078 108.291V124.56M39.7078 108.291H46.2399M39.7078 108.291H38.0748M46.2399 108.291V123.204M46.2399 108.291H53.6627M53.6627 108.291V121.848M53.6627 108.291H61.3824M61.3824 108.291V119.679M61.3824 108.291H68.8052M68.8052 108.291V117.239M68.8052 108.291H77.7126M38.0748 108.291V101.241M38.0748 70.3297V77.3796M38.0748 77.3796V101.241M38.0748 77.3796H44.4584M77.7126 77.3796V101.241M77.7126 77.3796H71.1805M77.7126 77.3796V70.3297M77.7126 108.291V101.241M38.0748 101.241H44.4584M77.7126 101.241H71.1805M44.4584 101.241V77.3796M44.4584 101.241C44.4584 101.241 61.6793 101.241 62.5701 101.241M44.4584 77.3796H71.1805M71.1805 77.3796V92.564M71.1805 101.241H62.5701M71.1805 101.241V92.564M62.5701 101.241C65.6056 99.17 69.399 96.6312 71.1805 92.564M53.0689 101.241C50.0333 99.17 46.2399 96.6312 44.4584 92.564M62.5701 77.3796C65.6056 79.4504 69.399 81.9892 71.1805 86.0564M53.0689 77.3796C50.0333 79.4504 46.2399 81.9892 44.4584 86.0564M57.8195 80.6334V89.5813H63.4608M77.7126 70.3297H79.1971M77.7126 70.3297H75.6342M36.4418 70.3297H40.0047M75.6342 60.2972V63.8221M75.6342 70.3297H40.0047M75.6342 70.3297V63.8221M40.0047 60.2972V63.8221M40.0047 70.3297V63.8221M40.0047 63.8221H42.677M75.6342 63.8221H72.0713M42.677 63.8221C46.1957 61.7805 47.6691 59.9063 49.5059 55.4165M42.677 63.8221H72.0713M49.5059 55.4165H66.133M49.5059 55.4165V48.3666M66.133 55.4165C68.2072 59.8276 69.5017 61.6943 72.0713 63.8221M66.133 55.4165V45.9262M49.5059 45.9262V48.3666M49.5059 48.3666H51.2874M66.133 48.3666H63.7577M51.2874 48.3666C54.1964 46.0634 55.1532 44.1008 56.2594 40.2276C56.3096 40.0515 56.3349 39.8681 56.3349 39.6851V37.1071C56.3349 36.2872 56.9996 35.6226 57.8195 35.6226V35.6226M51.2874 48.3666H63.7577M63.7577 48.3666C61.6187 46.1422 60.7705 44.0537 59.4209 40.2876C59.3436 40.0718 59.304 39.8438 59.304 39.6145V37.1071C59.304 36.2872 58.6394 35.6226 57.8195 35.6226V35.6226M57.8195 23.1497V35.6226M55.1473 26.6746H60.1948M10.3135 121.577V109.782M10.3135 97.987H31.3943M10.3135 97.987V109.782M10.3135 97.987C10.3135 97.987 7.04751 95.2755 8.23515 95.2755C9.4228 95.2755 12.3919 95.2755 12.3919 95.2755M31.3943 97.987V109.646M31.3943 97.987C31.3943 97.987 34.9572 95.2755 33.4727 95.2755C31.9881 95.2755 29.3159 95.2755 29.3159 95.2755M31.3943 124.56V109.646M17.7363 106.935C17.7363 106.935 8.82898 106.935 7.93824 106.935C7.04751 106.935 10.3135 109.782 10.3135 109.782M17.7363 106.935V103.584C17.7363 103.121 17.8969 102.672 18.1908 102.314L18.9177 101.429C19.2976 100.967 19.8647 100.698 20.4633 100.698H20.8866C21.3457 100.698 21.7907 100.856 22.1471 101.146L23.5289 102.267C23.9967 102.647 24.2684 103.218 24.2684 103.82V106.935M17.7363 106.935V109.646M24.2684 106.935C24.2684 106.935 32.285 106.935 33.4727 106.935C34.6603 106.935 31.3943 109.646 31.3943 109.646M24.2684 106.935V109.646M31.3943 109.646H24.2684M24.2684 109.646V112.9M17.7363 109.646L10.3135 109.782M17.7363 109.646V112.9M29.3159 95.2755C29.3159 95.2755 29.3159 89.5813 29.3159 87.4121C29.3159 85.2429 24.3291 79.2088 20.7055 77.9219M29.3159 95.2755H12.3919M20.7055 77.9219C15.0641 81.4469 12.9857 83.616 12.3919 87.4121C11.7981 91.2082 12.3919 95.2755 12.3919 95.2755M20.7055 77.9219C17.7247 82.1173 16.7492 84.5516 16.2518 89.039M20.7055 77.9219C23.6298 81.7691 24.5991 84.2729 25.753 89.039M20.7055 77.9219V71.9566M11.2043 89.039H16.2518M30.5036 89.039H25.753M16.2518 89.039C16.2518 89.039 24.8622 89.039 25.753 89.039M19.5178 74.397H21.5962M17.7363 112.9V117.137C17.7363 118.241 18.6318 119.137 19.7363 119.137H22.2684C23.373 119.137 24.2684 118.241 24.2684 117.137V112.9M17.7363 112.9H24.2684M26.3468 70.3297L27.6275 69.3941C27.76 69.2973 27.9198 69.2451 28.0838 69.2451V69.2451C28.3013 69.2451 28.5087 69.3366 28.6553 69.4973L29.0933 69.9773C29.5316 70.4576 30.2879 70.4576 30.7262 69.9773V69.9773C31.1064 69.5607 31.7392 69.4971 32.1946 69.8298L32.8789 70.3297L33.4727 70.872M21.0024 64.0933L23.3274 62.8547C24.0695 62.4593 24.9801 62.574 25.601 63.1411L25.6498 63.1856C26.3808 63.8532 27.5004 63.8532 28.2315 63.1856V63.1856C28.8711 62.6014 29.8234 62.5197 30.5533 62.9862L32.285 64.0933M83.6508 143.811V141.748C83.6508 141.499 83.6974 141.252 83.7882 141.02L85.1354 137.575M85.1354 137.575L84.9657 115.883M85.1354 137.575C88.2051 134.048 90.2102 132.162 94.9335 129.169C101.441 124.36 110.373 118.594 111.561 116.696C112.095 115.842 112.99 114.495 113.813 113.171M84.5416 61.6529L84.2237 61.4352C83.6794 61.0624 83.3539 60.445 83.3539 59.7852V55.9588M84.5416 61.6529L84.5971 68.7478M84.5416 61.6529H85.5107C86.6153 61.6529 87.5107 60.7575 87.5107 59.6529V55.9588M83.3539 55.9588H87.5107M83.3539 55.9588V55.9588C82.862 55.9588 82.4632 55.56 82.4632 55.068V52.2646C82.4632 51.1601 83.3586 50.2646 84.4632 50.2646H84.5971M91.0736 55.9588V68.7478M91.0736 55.9588H87.5107M91.0736 55.9588V55.9588C91.8935 55.9588 92.5582 55.2941 92.5582 54.4742V52.2646C92.5582 51.1601 91.6628 50.2646 90.5582 50.2646H90.1829M91.0736 96.6312L84.8745 104.223M91.0736 96.6312V87.6833M91.0736 96.6312L93.3005 98.936M84.8745 104.223L84.5971 68.7478M84.8745 104.223L84.9657 115.883M84.5971 68.7478H91.0736M91.0736 68.7478V81.9892M84.5971 50.2646V49.282C84.5971 48.1774 85.4925 47.282 86.5971 47.282H88.1829C89.2875 47.282 90.1829 48.1774 90.1829 49.282V50.2646M84.5971 50.2646H90.1829M95.5273 101.241L93.3005 98.936M95.5273 101.241L96.418 101.88M95.5273 101.241V90.3948M95.5273 87.6833H91.0736M95.5273 87.6833V90.3948M95.5273 87.6833L97.0119 85.3592M91.0736 87.6833V81.9892M84.9657 115.883L93.4725 105.972C93.836 105.549 94.006 104.993 93.9414 104.438L93.3005 98.936M113.639 98.936L110.373 102.305M113.639 98.936L115.717 104.756M113.639 98.936V95.5466M99.0903 103.797L103.318 106.831C103.658 107.075 104.066 107.206 104.484 107.206H104.776C105.317 107.206 105.835 106.987 106.212 106.598L107.998 104.756M99.0903 103.797V109.154C99.0903 109.646 99.2698 110.122 99.6049 110.482C100.981 111.961 102.069 112.86 103.694 113.892C104.325 114.292 105.132 114.283 105.761 113.88C107.393 112.835 108.526 111.983 109.888 110.472C110.206 110.119 110.373 109.657 110.373 109.182V102.305M99.0903 103.797L96.418 101.88M110.373 102.305L107.998 104.756M107.998 104.756H115.717M123.14 120.764V109.402C123.14 109.03 123.038 108.663 122.835 108.352C121.77 106.726 120.824 105.843 118.763 104.919C118.518 104.809 118.251 104.756 117.983 104.756H115.717M115.717 104.756C115.717 104.756 115.717 108.291 115.717 109.375C115.717 109.972 114.819 111.553 113.813 113.171M95.5273 143.269V141.671C95.5273 141.472 95.5569 141.274 95.6152 141.084L97.4746 135.02C97.5609 134.738 97.7084 134.479 97.9065 134.261L109.018 122.032C109.129 121.91 109.225 121.774 109.302 121.629L113.813 113.171M96.418 101.88V95.64C96.418 94.913 96.8125 94.2433 97.4482 93.8908L104.732 89.8525M104.732 89.8525L113.639 94.462M104.732 89.8525V87.141M113.639 94.462L113.726 90.5304M113.639 94.462V95.5466M95.5273 90.3948L99.9281 87.883C100.159 87.7512 100.414 87.6667 100.678 87.6346L104.732 87.141M104.732 87.141L109.252 87.6267C109.598 87.6638 109.927 87.7901 110.209 87.9933L113.726 90.5304M113.726 90.5304L113.789 87.6833M113.639 95.5466H107.622C106.518 95.5466 105.622 96.4421 105.622 97.5466V98.1036C105.622 99.0874 104.825 99.885 103.841 99.885V99.885M91.0736 81.9892L97.0119 85.3592M97.0119 85.3592L97.2342 85.0111C97.4749 84.6343 97.835 84.349 98.2569 84.2008L100.872 83.2823M96.1211 76.5662L100.872 83.2823M100.872 83.2823L101.144 83.1868C101.357 83.112 101.581 83.0737 101.807 83.0737H104.732M104.732 73.8547V83.0737M104.732 83.0737H107.63C107.873 83.0737 108.114 83.1181 108.341 83.2045L108.546 83.2823M113.639 76.5662L108.546 83.2823M108.546 83.2823L111.179 84.2842C111.431 84.3801 111.661 84.5259 111.855 84.713L112.687 85.5141M119.28 81.9892L112.687 85.5141M112.687 85.5141L113.181 85.9905C113.584 86.3782 113.806 86.9165 113.793 87.4751L113.789 87.6833M113.789 87.6833H119.874M123.14 138.874V138.874C124.466 139.626 126.109 138.668 126.109 137.145V123.796C126.109 123.092 125.74 122.441 125.136 122.079L120.526 119.321C119.193 118.523 117.499 119.484 117.499 121.037V134.511C117.499 135.232 117.886 135.896 118.513 136.251L123.14 138.874ZM123.14 138.874V153.573M131.157 145.438V105.797C131.157 104.693 132.052 103.797 133.157 103.797H136.204M136.204 103.797L136.047 123.475M136.204 103.797C140.014 114.399 146.186 118.421 159.66 118.949C176.195 118.832 180.655 110.945 183.71 103.797M135.907 140.829L136.047 123.475M136.047 123.475H140.553M183.71 123.475H178.663M183.71 103.797V145.438M183.71 103.797H186.164C187.268 103.797 188.164 104.693 188.164 105.797V123.475M188.164 140.829V123.475M173.021 116.696V123.746M178.663 111.768V123.475M178.663 123.475H167.677M167.677 118.063V123.475M167.677 123.475H162.481M162.481 118.866V123.475M162.481 123.475H156.691M156.691 118.949V123.475M156.691 123.475H151.05M151.05 118.371V123.475M151.05 123.475H145.599M145.599 115.883V123.475M145.599 123.475H140.553M140.553 111.768V123.475M188.164 123.475H195.29M207.76 30.1996V44.0282M201.228 47.5531H214.292M206.572 53.7896H203.39V44.0282H212.511V53.7896H209.542M206.572 53.7896L205.385 85.2429M206.572 53.7896H209.542M209.542 53.7896L210.729 98.8004M157.879 106.664H167.677M203.39 106.664C200.185 99.3411 196.833 95.9681 188.906 95.554C188.809 95.5489 188.707 95.5516 188.61 95.5617C181.264 96.3213 177.725 98.7291 175.545 105.216C175.26 106.065 174.481 106.664 173.586 106.664H167.677M192.914 106.664H210.729C210.729 106.664 205.686 99.2985 202.416 92.2928M167.677 106.664C171.646 101.693 173.436 98.4462 176.287 92.2928M176.287 92.2928H202.416M176.287 92.2928L175.868 91.5813C175.135 90.3375 176.031 88.7679 177.475 88.7679V88.7679M202.416 92.2928L202.731 91.5442C203.286 90.2259 202.318 88.7679 200.888 88.7679H200.634M181.929 71.6855L177.475 88.7679M177.475 88.7679H184.304M186.679 71.6855H181.389C180.656 71.6855 180.013 71.1952 179.819 70.4881V70.4881C179.536 69.4528 180.315 68.4317 181.389 68.4317H182.819M186.679 71.6855L184.304 88.7679M186.679 71.6855H191.133M184.304 88.7679H193.508M191.133 71.6855L193.508 88.7679M191.133 71.6855H195.884M193.508 88.7679H200.634M195.884 71.6855H196.424C197.157 71.6855 197.799 71.1952 197.993 70.4881V70.4881C198.276 69.4528 197.497 68.4317 196.424 68.4317H194.993M195.884 71.6855L200.634 88.7679M188.758 4.98265V11.2191M191.133 14.744V11.2191H186.679V14.744M191.133 14.744H186.679M191.133 14.744H192.024V18.5401H191.133M186.679 14.744H185.492V18.5401H186.679M191.133 18.5401C191.742 44.5687 192.639 55.1133 194.993 68.4317M191.133 18.5401H186.679M194.993 68.4317H182.819M186.679 18.5401C186.679 34.2668 185.492 57.8568 182.819 68.4317M118.39 97.4447H124.031M167.677 97.4447H149.268M124.031 97.4447V69.7874V65.449M124.031 97.4447H129.078M173.021 69.7874V81.9892M173.021 69.7874V59.4837M173.021 69.7874H168.271M149.268 69.7874V97.4447M149.268 69.7874H118.686M149.268 69.7874V65.449M149.268 69.7874H168.271M149.268 97.4447H144.518M129.078 97.4447V81.9892M129.078 97.4447H134.72M144.518 97.4447V81.9892M144.518 97.4447H138.876M129.078 81.9892V80.6582C129.078 80.1219 129.294 79.6082 129.676 79.2322L135.396 73.607C136.174 72.8416 137.422 72.8416 138.2 73.607L143.92 79.2322C144.302 79.6082 144.518 80.1219 144.518 80.6582V81.9892M129.078 81.9892L135.773 77.9919C136.404 77.6147 137.192 77.6147 137.823 77.9919L144.518 81.9892M134.72 97.4447V88.4868C134.72 87.9712 134.919 87.4754 135.276 87.1031L135.354 87.0213C136.141 86.1995 137.455 86.1995 138.242 87.0213L138.321 87.1031C138.677 87.4754 138.876 87.9712 138.876 88.4868V97.4447M134.72 97.4447H138.876M104.732 62.4664V67.7874C104.732 68.892 105.627 69.7874 106.732 69.7874H111.561M111.561 69.7874L109.185 67.0759M111.561 69.7874H118.686M109.185 67.0759L109.039 66.703C108.741 65.945 108.932 65.082 109.523 64.5211L114.827 59.4837M109.185 67.0759L108.795 66.0822C108.642 65.6944 108.744 65.2611 109.056 64.9641L114.827 59.4837M114.827 59.4837L120.182 64.8638C120.555 65.2386 120.765 65.7459 120.765 66.2748V67.0759M114.827 59.4837V54.8742V55.9588M114.827 59.4837L120.456 65.1388C120.655 65.3384 120.765 65.5985 120.765 65.8683V67.0759M114.827 59.4837V55.9588M120.765 67.0759L118.686 69.7874M124.031 65.449H149.268M124.031 65.449L122.464 62.3495C122.323 62.0698 122.249 61.7608 122.249 61.4474V58.6397C122.249 58.3039 122.334 57.9736 122.495 57.6792L124.446 54.1156C124.564 53.9001 124.721 53.7082 124.908 53.5495L125.219 53.287M149.268 65.449L150.835 62.3495C150.976 62.0698 151.05 61.7608 151.05 61.4474V58.5226C151.05 58.262 150.999 58.004 150.9 57.7629L149.459 54.2528C149.334 53.9487 149.136 53.68 148.882 53.4707L136.798 43.4859M168.271 62.4664V69.7874M114.827 55.9588H113.639H116.014H114.827ZM158.863 59.4837L153.093 64.9641C153.054 65.0012 153.018 65.0404 152.986 65.0815C152.759 65.3687 152.698 65.7429 152.831 66.0822L153.095 66.7517C153.179 66.9662 153.3 67.1646 153.451 67.3379L155.241 69.3804C155.466 69.6376 155.807 69.7874 156.168 69.7874H162.105C162.492 69.7874 162.855 69.6147 163.078 69.3248L164.389 67.6143C164.656 67.2651 164.802 66.8375 164.802 66.3976V65.8683C164.802 65.8515 164.801 65.8346 164.8 65.8179C164.787 65.5662 164.679 65.3259 164.493 65.1388L158.863 59.4837ZM158.863 59.4837V55.9588M158.863 55.9588V54.8742M158.863 55.9588H157.676M158.863 55.9588H160.051M136.798 43.4859V35.8937M136.798 43.4859L125.219 53.287M134.72 37.5206H138.58M125.219 31.8265V53.287M124.031 40.2321H126.406M124.031 36.7072H126.406M124.031 33.1822H126.406M176.881 37.7918V63.2798M176.881 37.7918L173.021 39.1475M176.881 37.7918C178.18 37.3773 179.17 36.9847 179.915 36.5596M173.021 39.1475C170.38 39.6488 168.081 39.9962 165.923 40.1947M173.021 39.1475V45.1128M173.021 49.9935V45.1128M150.159 39.1475V45.6551M150.159 39.1475C152.571 39.5881 154.697 39.9143 156.691 40.1223M150.159 39.1475L146.596 37.7918M150.159 49.9935V45.6551M146.596 37.7918V45.6551M146.596 37.7918C145.358 37.3676 144.38 36.9766 143.627 36.5596M150.159 45.6551C152.617 42.9002 154.047 41.6881 156.691 40.1223M156.691 40.1223C159.894 40.4564 162.758 40.4858 165.923 40.1947M165.923 40.1947C168.981 41.541 170.535 42.6185 173.021 45.1128M141.549 32.9111C141.431 34.6428 142.007 35.6617 143.627 36.5596M181.929 32.9111C181.965 34.6154 181.49 35.6602 179.915 36.5596M143.627 36.5596L151.05 33.9957M151.05 33.9957H154.729M151.05 33.9957L151.347 28.8438M172.428 33.9957L179.915 36.5596M172.428 33.9957V28.5727M172.428 33.9957H168.271M172.428 28.5727C164.84 29.3554 160.217 29.4098 151.347 28.8438M172.428 28.5727C173.799 28.1851 174.978 27.8255 175.99 27.4839M168.271 29.115V33.9957M168.271 33.9957H154.729M154.729 29.115V33.9957M151.347 28.8438C149.866 28.2966 148.587 27.804 147.487 27.3516M181.929 21.7939C181.92 23.124 181.471 24.4932 179.652 25.7567M141.549 21.7939C141.356 23.3951 142.769 25.4107 147.487 27.3516M147.487 22.6074V27.3516M147.487 27.3516C148.736 26.8011 149.862 26.2792 150.904 25.7567M175.99 22.6074V27.4839M175.99 27.4839C174.658 26.8806 173.484 26.3107 172.428 25.7567M175.99 27.4839C177.594 26.9431 178.78 26.362 179.652 25.7567M161.739 11.4902V17.7267M161.739 17.7267C165.337 21.1227 167.706 23.2806 172.428 25.7567M161.739 17.7267C157.83 21.6174 155.021 23.6923 150.904 25.7567M172.428 25.7567H179.652M143.627 25.7567H150.904M166.489 51.8915V55.9588M164.493 53.7896H168.271M147.487 104.756V106.935M147.487 106.935V109.375M147.487 106.935H144.815M147.487 106.935H150.159M72.6651 26.9458V30.1996M72.6651 30.1996V33.4534M72.6651 30.1996H69.399M72.6651 30.1996H76.228M67.6176 35.8837V38.0629M67.6176 38.0629V40.5033M67.6176 38.0629H64.9454M67.6176 38.0629H68.9537H70.2898M132.344 26.1323V28.0304M132.344 28.0304V30.1996M132.344 28.0304H130.266M132.344 28.0304H134.423M99.0903 41.3167L97.9026 66.0822M99.0903 41.3167L113.577 47.1378C113.814 47.233 114.067 47.282 114.323 47.282H115.42M99.0903 41.3167V41.3167C98.2704 41.3167 97.6057 40.652 97.6057 39.8321V28.4028C97.6057 28.1566 97.56 27.9108 97.47 27.6816C95.4858 22.6283 93.6695 20.15 85.7255 20.1566C85.1616 20.157 84.614 19.9364 84.2358 19.5181C83.5125 18.7178 82.9698 18.023 82.4517 17.1844M116.311 31.8265V46.3913C116.311 46.8832 115.912 47.282 115.42 47.282V47.282M116.311 31.8265C111.32 33.346 101.258 24.0519 94.0428 16.791M116.311 31.8265C116.405 30.1165 116.159 28.6011 116.311 27.2169M103.544 15.2863V17.068C103.544 17.6576 103.804 18.2171 104.255 18.5971L106.062 20.1205C106.83 20.7677 107.958 20.7453 108.7 20.0682L110.315 18.5926C110.73 18.2137 110.967 17.6777 110.967 17.1158V10.9479M103.544 15.2863V10.9479M103.544 15.2863H100.575M110.967 15.2863H113.936M92.5582 15.2863H100.575M92.5582 15.2863H90.4798M92.5582 15.2863C93.037 15.7747 93.5327 16.2778 94.0428 16.791M120.468 15.2863H113.936M120.468 15.2863C118.403 18.9421 117.405 21.8608 116.851 25.7567M120.468 15.2863H133.829M110.967 10.9479L108.49 12.6443C107.831 13.0958 106.966 13.1117 106.291 12.6847L103.544 10.9479M110.967 10.9479V6.33839M103.544 10.9479L103.504 8.65665M100.575 15.2863L100.495 9.56372C100.491 9.28111 100.563 8.92827 100.641 8.65665V8.65665M113.936 15.2863C113.936 12.8509 113.936 11.4854 113.936 9.04989C113.763 6.56019 113.202 4.9636 111.857 3.85002M103.417 3.6269C101.921 4.69481 101.338 6.23103 100.641 8.65665M103.417 3.6269L103.504 8.65665M103.417 3.6269L103.027 4.7115M103.417 3.6269C104.149 3.10363 105.041 2.6928 106.152 2.34487M101.762 8.23644L103.027 4.7115M110.967 3.24383C111.296 3.42917 111.592 3.63018 111.857 3.85002M110.967 3.24383C110.247 2.83884 109.367 2.50866 108.295 2.22037M110.967 3.24383V4.44035M111.857 3.85002L112.154 9.32104M110.967 6.33839H107.701V9.32104H106.513M110.967 6.33839V4.44035M100.641 8.65665H103.504M103.027 4.7115L106.152 2.34487M106.152 2.34487C106.405 2.26555 106.67 2.1895 106.946 2.11613C107.246 2.03665 107.562 2.03453 107.863 2.10906C108.01 2.14549 108.154 2.18257 108.295 2.22037M106.152 2.34487L108.888 2.7137M108.295 2.22037L108.888 2.7137M110.967 4.44035L108.888 2.7137M81.424 15.2863H70.0889C69.7808 15.2863 69.6728 15.695 69.9407 15.8472L74.5716 18.4786C75.2239 18.8493 76.0288 18.8237 76.6563 18.4123L78.5291 17.1844M81.424 15.2863L78.5291 17.1844M81.424 15.2863C81.7851 16.0268 82.1131 16.6363 82.4517 17.1844M81.424 15.2863H90.4798M78.5291 17.1844H82.4517M90.4798 15.2863L94.0428 16.791M116.851 25.7567C119.609 22.5946 121.394 21.5635 125.787 20.2617C125.999 20.1988 126.223 20.1725 126.444 20.1833C127.54 20.2363 128.31 20.2701 129.219 20.2223C129.703 20.1969 130.151 19.971 130.494 19.6283C131.283 18.8394 131.989 18.2249 132.532 17.7267M116.851 25.7567C116.783 26.2281 116.366 26.7138 116.311 27.2169M133.829 15.2863H143.963C144.111 15.2863 144.249 15.3963 144.229 15.5432C144.152 16.1163 143.267 16.433 139.337 18.1988C138.854 18.4159 138.301 18.4354 137.805 18.249L136.056 17.5911M133.829 15.2863C133.573 15.395 134.679 14.7683 133.532 16.6421M133.532 16.6421C133.361 16.9401 133.009 17.2884 132.532 17.7267M133.532 16.6421L136.056 17.5911M132.532 17.7267L136.056 17.5911M115.42 47.282V48.0954M115.42 52.4338V48.0954M116.311 27.2169L116.546 47.0933C116.548 47.2177 116.523 47.3409 116.473 47.4549V47.4549C116.37 47.6893 116.17 47.8672 115.925 47.9417L115.42 48.0954M155.207 81.7296H160.551C160.879 81.7296 161.145 81.4868 161.145 81.1873V77.3166C161.145 77.1896 161.096 77.0667 161.007 76.9692L158.161 73.8547C157.914 73.5846 157.455 73.5973 157.227 73.8805L154.729 76.9766C154.653 77.0698 154.613 77.1825 154.613 77.2983V81.1873C154.613 81.4868 154.879 81.7296 155.207 81.7296ZM165.923 74.4002L164.551 77.0088C164.513 77.082 164.493 77.1623 164.493 77.2436V81.1873C164.493 81.4868 164.759 81.7296 165.086 81.7296H167.677C168.005 81.7296 168.271 81.4868 168.271 81.1873V77.2314C168.271 77.1579 168.254 77.0853 168.223 77.0178L167.004 74.4214C166.803 73.9933 166.144 73.9804 165.923 74.4002ZM86.9169 32.6399C89.151 33.448 90.4044 33.9903 91.471 36.0373C91.6061 36.2967 91.6675 36.5876 91.6675 36.88V41.2635C91.6675 41.6521 91.5589 42.0359 91.3299 42.3498C90.601 43.3489 89.8245 43.9937 88.2601 44.7618C87.7849 44.9951 87.231 45.0113 86.7405 44.812C85.3346 44.2406 84.4411 43.7228 83.606 42.8026C83.2337 42.3925 83.1135 41.8208 83.2129 41.2759L83.2211 41.2311C83.3068 40.7614 83.56 40.3402 83.9255 40.0331C84.6893 39.3915 85.0593 39.0009 85.1354 38.6052L85.7842 39.6718C86.231 40.4063 87.2154 40.5924 87.8996 40.0717V40.0717C88.2196 39.8281 88.4241 39.4625 88.4639 39.0622L88.6616 37.0758C88.6859 36.8321 88.6653 36.5851 88.5993 36.3492C87.6802 33.0697 87.5076 33.6268 86.9169 32.6399ZM165.553 85.6668L164.608 87.4647C164.532 87.6083 164.493 87.768 164.493 87.9302V91.2928C164.493 91.8451 164.94 92.2928 165.493 92.2928H167.271C167.823 92.2928 168.271 91.8451 168.271 91.2928V87.9063C168.271 87.7594 168.238 87.6144 168.176 87.4814L167.344 85.7075C166.993 84.9597 165.938 84.9358 165.553 85.6668ZM160.145 92.2928H155.613C155.061 92.2928 154.613 91.8451 154.613 91.2928V88.0364C154.613 87.8079 154.691 87.5863 154.835 87.4085L156.945 84.7933C157.329 84.3167 158.048 84.2945 158.461 84.7466L160.883 87.3968C161.051 87.5811 161.145 87.8217 161.145 88.0714V91.2928C161.145 91.8451 160.697 92.2928 160.145 92.2928ZM33.8507 173.227L33.6673 173.338C33.3491 173.532 33.1062 173.828 32.9784 174.178V174.178C32.9126 174.359 32.8789 174.549 32.8789 174.742V174.89C32.8789 175.136 32.9407 175.378 33.0588 175.593V175.593C33.1362 175.735 33.2366 175.862 33.3557 175.971L33.6265 176.219C33.7217 176.305 33.825 176.383 33.9351 176.45L34.2799 176.66C34.5287 176.811 34.8144 176.892 35.1057 176.892V176.892C35.397 176.892 35.6827 176.811 35.9315 176.66L36.2763 176.45C36.3864 176.383 36.4897 176.305 36.5849 176.219L36.8952 175.935C36.9882 175.85 37.0665 175.751 37.127 175.64V175.64C37.2595 175.398 37.3 175.116 37.241 174.847L37.11 174.249C37.061 174.025 36.9658 173.813 36.8306 173.628V173.628C36.581 173.286 36.2096 173.053 35.7932 172.977L35.4347 172.911C35.121 172.854 34.798 172.873 34.4929 172.966L34.3083 173.022C34.1477 173.071 33.994 173.14 33.8507 173.227ZM36.0039 193.957L36.3097 194.19C36.58 194.395 36.7387 194.716 36.7387 195.055V195.055C36.7387 195.656 36.2517 196.143 35.6509 196.143H34.6017C33.9782 196.143 33.4727 195.638 33.4727 195.014V195.014C33.4727 194.697 33.6061 194.394 33.8403 194.181L33.9861 194.047C34.5485 193.534 35.3977 193.496 36.0039 193.957Z" stroke="#A7C5D4" stroke-width="3.5" stroke-linecap="round"/>
<path d="M254.866 126.175L258.166 125.35V90.15L254.866 89.325V88.5H269.716C275.289 88.5 279.377 89.3983 281.981 91.195C284.621 92.955 285.941 95.265 285.941 98.125C285.941 100.105 285.372 101.7 284.236 102.91C283.099 104.12 281.651 105.018 279.891 105.605C278.021 106.265 276.004 106.613 273.841 106.65V106.925C276.517 107.035 278.846 107.438 280.826 108.135C282.842 108.795 284.511 109.822 285.831 111.215C287.187 112.608 287.866 114.387 287.866 116.55C287.866 119.813 286.527 122.38 283.851 124.25C281.174 126.083 276.829 127 270.816 127H254.866V126.175ZM269.716 106.1C270.926 106.1 272.044 105.77 273.071 105.11C274.134 104.413 274.977 103.46 275.601 102.25C276.261 101.003 276.591 99.6283 276.591 98.125C276.591 96.5117 276.261 95.0817 275.601 93.835C274.977 92.5883 274.134 91.6167 273.071 90.92C272.044 90.2233 270.926 89.875 269.716 89.875H267.241V106.1H269.716ZM270.816 125.625C273.089 125.625 274.941 124.818 276.371 123.205C277.801 121.592 278.516 119.373 278.516 116.55C278.516 113.727 277.801 111.508 276.371 109.895C274.941 108.282 273.089 107.475 270.816 107.475H267.241V125.625H270.816ZM292.249 127V126.175L295.549 125.35V90.15L292.249 89.325V88.5H307.924V89.325L304.624 90.15V125.35L307.924 126.175V127H292.249ZM332.386 127.825C326.959 127.825 322.852 126.56 320.066 124.03C317.279 121.463 315.886 117.87 315.886 113.25V90.15L312.586 89.325V88.5H328.261V89.325L324.961 90.15V113.25C324.961 117.98 325.694 121.372 327.161 123.425C328.627 125.442 330.736 126.45 333.486 126.45C335.172 126.45 336.767 125.918 338.271 124.855C339.811 123.755 341.039 122.215 341.956 120.235C342.909 118.218 343.386 115.89 343.386 113.25V90.975L338.986 89.325V88.5H349.436V89.325L345.036 90.975V113.25C345.036 116.22 344.486 118.805 343.386 121.005C342.286 123.205 340.782 124.892 338.876 126.065C336.969 127.238 334.806 127.825 332.386 127.825ZM352.458 126.175L355.758 125.35V90.15L352.458 89.325V88.5H367.033C373.267 88.5 377.758 89.4533 380.508 91.36C383.258 93.23 384.633 95.8517 384.633 99.225C384.633 101.498 384.028 103.35 382.818 104.78C381.608 106.173 380.05 107.218 378.143 107.915C376.127 108.685 373.982 109.088 371.708 109.125V109.4C373.065 109.473 374.257 109.675 375.283 110.005C377.85 110.812 379.592 112.26 380.508 114.35L385.458 125.35L388.208 126.175V127H380.508C377.502 127 375.302 125.442 373.908 122.325L368.408 109.95H364.833V125.35L368.683 126.175V127H352.458V126.175ZM367.033 108.575C369.6 108.575 371.617 107.768 373.083 106.155C374.55 104.542 375.283 102.232 375.283 99.225C375.283 96.2183 374.55 93.9083 373.083 92.295C371.617 90.6817 369.6 89.875 367.033 89.875H364.833V108.575H367.033ZM408.032 127.825C404.439 127.825 401.285 127.055 398.572 125.515C395.895 123.938 393.824 121.647 392.357 118.64C390.89 115.633 390.157 112.003 390.157 107.75C390.157 103.497 390.89 99.8667 392.357 96.86C393.824 93.8533 395.895 91.58 398.572 90.04C401.285 88.4633 404.439 87.675 408.032 87.675C411.625 87.675 414.76 88.4633 417.437 90.04C420.15 91.58 422.24 93.8533 423.707 96.86C425.174 99.8667 425.907 103.497 425.907 107.75C425.907 112.003 425.174 115.633 423.707 118.64C422.24 121.647 420.15 123.938 417.437 125.515C414.76 127.055 411.625 127.825 408.032 127.825ZM408.032 126.725C409.462 126.725 410.782 126.12 411.992 124.91C413.239 123.7 414.265 121.683 415.072 118.86C415.879 116.037 416.282 112.333 416.282 107.75C416.282 103.167 415.879 99.4633 415.072 96.64C414.265 93.8167 413.239 91.8 411.992 90.59C410.782 89.38 409.462 88.775 408.032 88.775C406.602 88.775 405.264 89.38 404.017 90.59C402.807 91.8 401.799 93.8167 400.992 96.64C400.185 99.4633 399.782 103.167 399.782 107.75C399.782 112.333 400.185 116.037 400.992 118.86C401.799 121.683 402.807 123.7 404.017 124.91C405.264 126.12 406.602 126.725 408.032 126.725ZM446.56 126.175L449.86 125.35V90.15L446.56 89.325V88.5H461.96C468.047 88.5 472.41 89.5083 475.05 91.525C477.69 93.505 479.01 96.4383 479.01 100.325C479.01 104.212 477.69 107.163 475.05 109.18C472.41 111.16 468.047 112.15 461.96 112.15H458.935V125.35L462.235 126.175V127H446.56V126.175ZM461.96 110.775C464.27 110.775 466.122 109.895 467.515 108.135C468.945 106.375 469.66 103.772 469.66 100.325C469.66 96.915 468.945 94.33 467.515 92.57C466.122 90.7733 464.27 89.875 461.96 89.875H458.935V110.775H461.96ZM501.274 127.825C497.681 127.825 494.528 127.055 491.814 125.515C489.138 123.938 487.066 121.647 485.599 118.64C484.133 115.633 483.399 112.003 483.399 107.75C483.399 103.497 484.133 99.8667 485.599 96.86C487.066 93.8533 489.138 91.58 491.814 90.04C494.528 88.4633 497.681 87.675 501.274 87.675C504.868 87.675 508.003 88.4633 510.679 90.04C513.393 91.58 515.483 93.8533 516.949 96.86C518.416 99.8667 519.149 103.497 519.149 107.75C519.149 112.003 518.416 115.633 516.949 118.64C515.483 121.647 513.393 123.938 510.679 125.515C508.003 127.055 504.868 127.825 501.274 127.825ZM501.274 126.725C502.704 126.725 504.024 126.12 505.234 124.91C506.481 123.7 507.508 121.683 508.314 118.86C509.121 116.037 509.524 112.333 509.524 107.75C509.524 103.167 509.121 99.4633 508.314 96.64C507.508 93.8167 506.481 91.8 505.234 90.59C504.024 89.38 502.704 88.775 501.274 88.775C499.844 88.775 498.506 89.38 497.259 90.59C496.049 91.8 495.041 93.8167 494.234 96.64C493.428 99.4633 493.024 103.167 493.024 107.75C493.024 112.333 493.428 116.037 494.234 118.86C495.041 121.683 496.049 123.7 497.259 124.91C498.506 126.12 499.844 126.725 501.274 126.725ZM524.387 126.175L527.687 125.35V90.15L524.387 89.325V88.5H538.412C544.976 88.5 549.999 90.1867 553.482 93.56C557.002 96.9333 558.762 101.663 558.762 107.75C558.762 113.837 557.002 118.567 553.482 121.94C549.999 125.313 544.976 127 538.412 127H524.387V126.175ZM538.412 125.625C541.822 125.625 544.462 124.25 546.332 121.5C548.202 118.713 549.137 114.13 549.137 107.75C549.137 101.37 548.202 96.805 546.332 94.055C544.462 91.2683 541.822 89.875 538.412 89.875H536.762V125.625H538.412ZM563.704 126.175L567.004 125.35V90.15L563.704 89.325V88.5H578.279C584.512 88.5 589.004 89.4533 591.754 91.36C594.504 93.23 595.879 95.8517 595.879 99.225C595.879 101.498 595.274 103.35 594.064 104.78C592.854 106.173 591.295 107.218 589.389 107.915C587.372 108.685 585.227 109.088 582.954 109.125V109.4C584.31 109.473 585.502 109.675 586.529 110.005C589.095 110.812 590.837 112.26 591.754 114.35L596.704 125.35L599.454 126.175V127H591.754C588.747 127 586.547 125.442 585.154 122.325L579.654 109.95H576.079V125.35L579.929 126.175V127H563.704V126.175ZM578.279 108.575C580.845 108.575 582.862 107.768 584.329 106.155C585.795 104.542 586.529 102.232 586.529 99.225C586.529 96.2183 585.795 93.9083 584.329 92.295C582.862 90.6817 580.845 89.875 578.279 89.875H576.079V108.575H578.279ZM619.277 127.825C615.684 127.825 612.531 127.055 609.817 125.515C607.141 123.938 605.069 121.647 603.602 118.64C602.136 115.633 601.402 112.003 601.402 107.75C601.402 103.497 602.136 99.8667 603.602 96.86C605.069 93.8533 607.141 91.58 609.817 90.04C612.531 88.4633 615.684 87.675 619.277 87.675C622.871 87.675 626.006 88.4633 628.682 90.04C631.396 91.58 633.486 93.8533 634.952 96.86C636.419 99.8667 637.152 103.497 637.152 107.75C637.152 112.003 636.419 115.633 634.952 118.64C633.486 121.647 631.396 123.938 628.682 125.515C626.006 127.055 622.871 127.825 619.277 127.825ZM619.277 126.725C620.707 126.725 622.027 126.12 623.237 124.91C624.484 123.7 625.511 121.683 626.317 118.86C627.124 116.037 627.527 112.333 627.527 107.75C627.527 103.167 627.124 99.4633 626.317 96.64C625.511 93.8167 624.484 91.8 623.237 90.59C622.027 89.38 620.707 88.775 619.277 88.775C617.847 88.775 616.509 89.38 615.262 90.59C614.052 91.8 613.044 93.8167 612.237 96.64C611.431 99.4633 611.027 103.167 611.027 107.75C611.027 112.333 611.431 116.037 612.237 118.86C613.044 121.683 614.052 123.7 615.262 124.91C616.509 126.12 617.847 126.725 619.277 126.725ZM617.737 85.75L619.937 77.5H627.087L619.662 85.75H617.737ZM640.766 125.625L661.171 89.875H646.816C646.816 92.1117 646.211 94.2567 645.001 96.31C644.488 97.1533 643.901 97.85 643.241 98.4H641.591V88.5H671.291V89.875L650.941 125.625H665.791C665.791 123.315 666.378 121.17 667.551 119.19C668.064 118.347 668.669 117.65 669.366 117.1H671.016V127H640.766V125.625ZM656.056 85.2C654.956 85.2 654.039 84.8333 653.306 84.1C652.573 83.3667 652.206 82.45 652.206 81.35C652.206 80.25 652.573 79.3333 653.306 78.6C654.039 77.8667 654.956 77.5 656.056 77.5C657.156 77.5 658.073 77.8667 658.806 78.6C659.539 79.3333 659.906 80.25 659.906 81.35C659.906 82.45 659.539 83.3667 658.806 84.1C658.073 84.8333 657.156 85.2 656.056 85.2ZM684.203 126.175L687.503 125.35V112.7L676.228 90.15L673.478 89.325V88.5H680.353C682.26 88.5 683.781 88.9033 684.918 89.71C686.091 90.5167 687.045 91.6717 687.778 93.175L695.918 109.4L704.278 90.975L700.153 89.325V88.5H710.603V89.325L706.203 90.975L696.578 112.15V125.35L699.878 126.175V127H684.203V126.175ZM745.82 127.825C742.227 127.825 739.074 127.055 736.36 125.515C733.684 123.938 731.612 121.647 730.145 118.64C728.679 115.633 727.945 112.003 727.945 107.75C727.945 103.497 728.679 99.8667 730.145 96.86C731.612 93.8533 733.684 91.58 736.36 90.04C739.074 88.4633 742.227 87.675 745.82 87.675C749.414 87.675 752.549 88.4633 755.225 90.04C757.939 91.58 760.029 93.8533 761.495 96.86C762.962 99.8667 763.695 103.497 763.695 107.75C763.695 112.003 762.962 115.633 761.495 118.64C760.029 121.647 757.939 123.938 755.225 125.515C752.549 127.055 749.414 127.825 745.82 127.825ZM745.82 126.725C747.25 126.725 748.57 126.12 749.78 124.91C751.027 123.7 752.054 121.683 752.86 118.86C753.667 116.037 754.07 112.333 754.07 107.75C754.07 103.167 753.667 99.4633 752.86 96.64C752.054 93.8167 751.027 91.8 749.78 90.59C748.57 89.38 747.25 88.775 745.82 88.775C744.39 88.775 743.052 89.38 741.805 90.59C740.595 91.8 739.587 93.8167 738.78 96.64C737.974 99.4633 737.57 103.167 737.57 107.75C737.57 112.333 737.974 116.037 738.78 118.86C739.587 121.683 740.595 123.7 741.805 124.91C743.052 126.12 744.39 126.725 745.82 126.725ZM768.933 126.175L772.233 125.35V90.15L768.933 89.325V88.5H783.783C789.356 88.5 793.445 89.3983 796.048 91.195C798.688 92.955 800.008 95.265 800.008 98.125C800.008 100.105 799.44 101.7 798.303 102.91C797.166 104.12 795.718 105.018 793.958 105.605C792.088 106.265 790.071 106.613 787.908 106.65V106.925C790.585 107.035 792.913 107.438 794.893 108.135C796.91 108.795 798.578 109.822 799.898 111.215C801.255 112.608 801.933 114.387 801.933 116.55C801.933 119.813 800.595 122.38 797.918 124.25C795.241 126.083 790.896 127 784.883 127H768.933V126.175ZM783.783 106.1C784.993 106.1 786.111 105.77 787.138 105.11C788.201 104.413 789.045 103.46 789.668 102.25C790.328 101.003 790.658 99.6283 790.658 98.125C790.658 96.5117 790.328 95.0817 789.668 93.835C789.045 92.5883 788.201 91.6167 787.138 90.92C786.111 90.2233 784.993 89.875 783.783 89.875H781.308V106.1H783.783ZM784.883 125.625C787.156 125.625 789.008 124.818 790.438 123.205C791.868 121.592 792.583 119.373 792.583 116.55C792.583 113.727 791.868 111.508 790.438 109.895C789.008 108.282 787.156 107.475 784.883 107.475H781.308V125.625H784.883ZM806.316 127V126.175L809.616 125.35V90.15L806.316 89.325V88.5H821.991V89.325L818.691 90.15V125.35L821.991 126.175V127H806.316ZM826.941 126.175L830.241 125.35V90.15L826.941 89.325V88.5H856.366V98.4H854.716C854.019 97.85 853.414 97.1533 852.901 96.31C851.728 94.33 851.141 92.185 851.141 89.875H839.316V107.2H845.641C845.898 105.807 846.374 104.505 847.071 103.295C847.364 102.745 847.713 102.213 848.116 101.7H849.766V114.075H848.116C847.713 113.562 847.364 113.03 847.071 112.48C846.374 111.27 845.898 109.968 845.641 108.575H839.316V125.625H852.241C852.241 123.315 852.828 121.17 854.001 119.19C854.514 118.347 855.119 117.65 855.816 117.1H857.466V127H826.941V126.175ZM861.84 125.625L882.245 89.875H867.89C867.89 92.1117 867.285 94.2567 866.075 96.31C865.562 97.1533 864.975 97.85 864.315 98.4H862.665V88.5H892.365V89.875L872.015 125.625H886.865C886.865 123.315 887.452 121.17 888.625 119.19C889.138 118.347 889.743 117.65 890.44 117.1H892.09V127H861.84V125.625ZM877.13 85.2C876.03 85.2 875.113 84.8333 874.38 84.1C873.647 83.3667 873.28 82.45 873.28 81.35C873.28 80.25 873.647 79.3333 874.38 78.6C875.113 77.8667 876.03 77.5 877.13 77.5C878.23 77.5 879.147 77.8667 879.88 78.6C880.613 79.3333 880.98 80.25 880.98 81.35C880.98 82.45 880.613 83.3667 879.88 84.1C879.147 84.8333 878.23 85.2 877.13 85.2ZM905.277 126.175L908.577 125.35V112.7L897.302 90.15L894.552 89.325V88.5H901.427C903.334 88.5 904.856 88.9033 905.992 89.71C907.166 90.5167 908.119 91.6717 908.852 93.175L916.992 109.4L925.352 90.975L921.227 89.325V88.5H931.677V89.325L927.277 90.975L917.652 112.15V125.35L920.952 126.175V127H905.277V126.175ZM945.689 127.825C943.086 127.825 940.648 127.238 938.374 126.065C937.348 125.552 936.486 124.947 935.789 124.25C935.276 125.093 934.634 125.845 933.864 126.505C933.204 126.982 932.838 127.238 932.764 127.275H931.389V116.825H933.589C934.139 118.622 934.909 120.235 935.899 121.665C938.136 124.855 941.033 126.45 944.589 126.45C946.679 126.45 948.348 125.827 949.594 124.58C950.841 123.333 951.464 121.665 951.464 119.575C951.464 118.365 951.098 117.283 950.364 116.33C949.668 115.377 948.788 114.533 947.724 113.8C946.661 113.067 945.176 112.15 943.269 111.05C940.849 109.693 938.888 108.465 937.384 107.365C935.881 106.265 934.598 104.89 933.534 103.24C932.471 101.553 931.939 99.5733 931.939 97.3C931.939 95.5033 932.434 93.89 933.424 92.46C934.451 90.9933 935.973 89.8383 937.989 88.995C940.006 88.115 942.481 87.675 945.414 87.675C947.541 87.675 949.668 88.28 951.794 89.49C952.601 89.93 953.408 90.5167 954.214 91.25C954.838 90.2967 955.479 89.545 956.139 88.995C956.799 88.5183 957.166 88.2617 957.239 88.225H958.614V98.675H956.414C955.938 96.915 955.223 95.32 954.269 93.89C953.389 92.4967 952.289 91.3417 950.969 90.425C949.686 89.5083 948.201 89.05 946.514 89.05C945.084 89.05 943.856 89.6183 942.829 90.755C941.803 91.8917 941.289 93.34 941.289 95.1C941.289 96.4567 941.674 97.685 942.444 98.785C943.251 99.8483 944.223 100.783 945.359 101.59C946.533 102.397 948.109 103.368 950.089 104.505C952.399 105.825 954.269 106.998 955.699 108.025C957.129 109.052 958.339 110.335 959.329 111.875C960.319 113.378 960.814 115.12 960.814 117.1C960.814 119.08 960.246 120.895 959.109 122.545C957.973 124.158 956.268 125.442 953.994 126.395C951.721 127.348 948.953 127.825 945.689 127.825ZM944.314 85.75L946.514 77.5H953.664L946.239 85.75H944.314ZM964.099 89.875L961.074 89.325V88.5H967.674C969.618 88.5 971.213 88.94 972.459 89.82C973.706 90.7 974.586 91.8183 975.099 93.175L983.404 114.35L988.244 100.16L984.174 89.875L981.149 89.325V88.5H987.749C989.693 88.5 991.269 88.94 992.479 89.82C993.689 90.6633 994.588 91.7817 995.174 93.175L1003.48 114.35L1011.4 90.975L1007.27 89.325V88.5H1017.45V89.325L1013.05 90.975L1000.67 127.55H999.024L989.124 102.415L980.599 127.55H978.949L964.099 89.875ZM1019.12 127V126.175L1022.42 125.35V90.15L1019.12 89.325V88.5H1034.79V89.325L1031.49 90.15V125.35L1034.79 126.175V127H1019.12ZM1034.77 126.175L1039.17 124.525L1054.29 87.95H1055.94L1071.62 125.35L1074.37 126.175V127H1067.77C1065.86 127 1064.3 126.578 1063.09 125.735C1061.88 124.855 1060.98 123.718 1060.4 122.325L1057.59 115.725H1044.45L1040.82 124.525L1044.94 126.175V127H1034.77V126.175ZM1045 114.35H1057.04L1050.99 99.885L1045 114.35ZM1079.6 126.175L1082.9 125.35V89.875H1076.57C1076.57 92.1117 1075.97 94.2567 1074.76 96.31C1074.24 97.1533 1073.66 97.85 1073 98.4H1071.35V88.5H1103.52V98.4H1101.87C1101.18 97.85 1100.57 97.1533 1100.06 96.31C1098.88 94.33 1098.3 92.185 1098.3 89.875H1091.97V125.35L1095.27 126.175V127H1079.6V126.175Z" fill="#A7C3D4"/>
</svg>
